<?xml version="1.0" standalone="no"?>
<!DOCTYPE svg PUBLIC "-//W3C//DTD SVG 20010904//EN"
 "http://www.w3.org/TR/2001/REC-SVG-20010904/DTD/svg10.dtd">
<svg version="1.0" xmlns="http://www.w3.org/2000/svg"
 width="1280.000000pt" height="640.000000pt" viewBox="0 0 1280.000000 640.000000"
 preserveAspectRatio="xMidYMid meet">

<g transform="translate(0.000000,640.000000) scale(0.100000,-0.100000)"
fill="#000000" stroke="none">
<path d="M0 3200 l0 -3200 6400 0 6400 0 0 3200 0 3200 -6400 0 -6400 0 0
-3200z m3070 89 c218 -29 331 -38 520 -39 160 0 225 -7 455 -48 103 -18 251
-33 490 -48 167 -10 770 -105 827 -131 21 -9 60 -39 87 -68 59 -62 72 -105 45
-156 -27 -54 -75 -122 -103 -146 -14 -13 -21 -23 -16 -23 7 0 7 -3 0 -8 -5 -4
-21 -23 -35 -42 -52 -75 -182 -212 -233 -246 -23 -16 -83 -65 -132 -109 -158
-139 -206 -180 -223 -186 -31 -12 -222 -204 -222 -223 0 -16 2 -17 17 -5 15
12 16 12 8 -1 -5 -8 9 1 32 20 137 118 223 189 291 243 42 33 111 93 153 132
42 40 109 92 150 115 41 24 99 60 129 80 30 20 89 53 130 73 41 20 107 64 145
98 103 89 167 128 412 249 258 128 276 132 308 69 34 -64 12 -124 -82 -230
-112 -127 -299 -325 -475 -504 -97 -99 -175 -181 -173 -183 5 -6 96 48 125 73
14 12 67 50 118 84 110 73 218 156 322 246 41 35 118 88 170 116 155 84 252
148 411 266 262 195 356 221 350 95 -3 -68 -90 -204 -217 -342 -54 -58 -131
-145 -268 -301 -91 -103 -166 -205 -166 -224 0 -7 -11 -34 -26 -60 -32 -60
-29 -95 10 -114 25 -12 40 -10 135 14 161 41 397 122 486 168 355 180 354 179
595 320 108 64 148 78 179 64 20 -9 22 -16 18 -47 -2 -20 -14 -57 -26 -82 -11
-26 -18 -54 -15 -62 8 -20 40 -20 77 -1 40 21 157 126 192 174 39 52 80 71
103 48 13 -14 14 -23 5 -57 -5 -22 -7 -40 -3 -40 4 0 38 23 76 50 78 57 110
62 142 25 12 -14 19 -25 14 -25 -4 0 -7 -21 -8 -47 -1 -27 -5 -67 -9 -90 -9
-51 1 -55 55 -21 19 12 63 33 97 47 102 42 352 257 466 401 43 53 52 71 52
104 0 31 4 41 18 44 57 11 98 -30 77 -76 -19 -43 -156 -205 -235 -281 -92 -86
-99 -111 -20 -75 40 19 67 24 106 22 51 -3 60 -9 73 -50 4 -15 8 -15 48 0 53
19 98 11 98 -18 0 -20 -35 -50 -58 -50 -18 0 -91 -52 -92 -65 -1 -10 -91 -87
-138 -117 -33 -22 -75 -23 -92 -3 -22 26 -1 72 61 135 87 89 78 100 -35 39
-31 -17 -89 -61 -129 -99 -82 -78 -158 -120 -185 -104 -9 6 -19 28 -22 49 -3
21 -11 40 -19 43 -8 3 -11 0 -8 -5 7 -11 -25 -44 -60 -62 -34 -17 -158 -14
-177 5 -20 19 -21 10 13 85 33 72 46 129 30 129 -12 0 -121 -75 -189 -130 -25
-20 -68 -50 -96 -65 -50 -28 -53 -28 -90 -14 -33 12 -48 13 -92 3 -30 -7 -56
-15 -59 -18 -7 -7 -103 42 -103 52 0 5 -6 16 -13 26 -12 17 -19 16 -110 -23
-53 -23 -99 -41 -103 -41 -4 0 -39 -20 -78 -44 -138 -85 -386 -190 -681 -287
-231 -76 -284 -84 -341 -49 -63 39 -63 92 -1 261 36 101 64 142 209 303 134
149 159 178 300 345 67 79 148 192 148 206 0 3 -8 5 -17 5 -19 0 -94 -49 -208
-136 -107 -81 -241 -170 -345 -229 -107 -60 -189 -116 -265 -181 -76 -64 -195
-153 -310 -232 -49 -34 -126 -87 -170 -117 -44 -30 -98 -68 -121 -84 -63 -47
-102 -61 -138 -48 -38 13 -46 23 -46 61 0 26 30 59 211 235 116 113 282 282
368 374 237 255 291 322 291 360 0 23 -17 18 -107 -31 -37 -21 -102 -52 -143
-71 -110 -49 -266 -144 -335 -203 -71 -61 -195 -140 -353 -228 -96 -53 -164
-101 -212 -150 -57 -56 -93 -88 -146 -127 -16 -12 -52 -39 -80 -60 -28 -21
-99 -81 -158 -133 -113 -99 -152 -123 -201 -118 -57 5 -77 50 -55 129 11 40
134 165 260 264 41 33 124 102 184 155 60 52 139 118 175 146 70 53 122 112
255 289 111 147 113 151 89 184 -44 59 -114 88 -268 111 -44 6 -109 18 -145
25 -36 8 -99 19 -140 25 -41 5 -123 17 -181 25 -59 8 -151 15 -205 16 -146 1
-363 24 -499 53 -178 38 -268 46 -495 46 -134 0 -233 5 -285 14 -100 18 -250
36 -302 36 -21 0 -44 5 -51 12 -13 13 -16 50 -5 61 11 12 71 8 233 -14z m4835
-826 c42 -5 74 -34 75 -66 0 -10 -6 -20 -14 -23 -20 -8 -137 15 -163 32 -45
28 -20 80 32 69 17 -3 48 -9 70 -12z m-4553 -1272 c13 -11 32 -35 43 -54 l19
-36 29 25 c44 37 68 31 126 -32 28 -30 51 -60 51 -65 0 -5 -11 -15 -25 -21
-21 -9 -31 -7 -66 16 l-41 27 -39 -25 c-21 -14 -45 -26 -53 -26 -18 0 -39 26
-32 39 4 5 -16 31 -44 57 -56 52 -66 88 -27 104 31 12 31 12 59 -9z m4814 -33
c5 -7 7 -52 5 -101 l-3 -88 29 8 c15 4 52 7 82 7 45 -1 58 -6 84 -32 30 -30
31 -34 35 -141 l5 -111 28 0 c26 0 29 -4 29 -30 l0 -30 -567 2 -568 3 0 25 c0
20 6 26 28 28 l27 3 0 99 0 99 -27 3 c-22 2 -28 8 -28 27 0 23 6 26 67 39 100
22 98 25 98 -132 l0 -134 38 -3 c20 -2 49 -3 65 -1 l27 3 0 99 0 99 -27 3
c-22 2 -28 8 -28 28 0 22 7 26 65 42 53 14 67 14 78 4 11 -11 21 -11 54 1 52
18 121 8 156 -22 26 -22 27 -29 32 -137 l5 -113 55 0 55 0 0 190 0 190 -27 3
c-23 3 -28 8 -28 32 0 26 3 28 58 38 81 14 90 14 98 0z m-671 -38 c15 -16 17
-25 9 -47 -19 -56 -109 -56 -129 1 -8 25 -6 31 19 53 33 28 67 25 101 -7z
m-2826 -7 c63 -20 127 -84 137 -138 3 -20 9 -33 13 -28 3 5 31 15 61 21 30 6
62 13 70 16 35 13 42 -8 41 -126 -1 -63 1 -122 5 -131 8 -22 61 -22 86 0 14
13 18 31 18 95 l0 78 -30 0 c-27 0 -30 3 -30 30 0 22 5 30 18 30 10 0 42 6 72
14 39 10 59 11 67 4 9 -7 13 -48 13 -138 l0 -128 35 -4 c28 -3 35 -1 35 14 0
55 73 109 168 124 23 4 42 8 42 10 0 1 -4 14 -10 28 -8 22 -16 26 -50 26 -35
0 -41 -3 -38 -18 4 -25 -19 -52 -44 -52 -35 0 -58 19 -58 50 0 55 88 96 189
88 45 -4 59 -10 83 -37 27 -30 28 -35 28 -137 0 -99 1 -105 19 -99 13 4 23 0
30 -12 6 -10 11 -13 11 -6 0 6 12 13 28 15 l27 3 0 95 0 95 -27 3 c-23 3 -28
8 -28 30 0 25 5 29 63 44 49 13 65 14 75 4 10 -10 24 -10 70 2 46 12 65 12
100 3 64 -18 76 -44 81 -173 l3 -108 29 0 c23 0 29 -5 29 -21 0 -11 4 -18 9
-14 5 3 7 21 4 39 -4 26 0 39 15 54 20 20 20 23 5 52 -20 42 -10 92 28 129 35
36 79 46 157 37 50 -6 59 -4 74 14 34 39 92 15 86 -35 -2 -21 -12 -34 -33 -45
-22 -11 -29 -21 -27 -36 5 -32 -23 -90 -52 -109 -13 -9 -46 -20 -73 -24 -47
-7 -46 -7 37 -14 93 -9 126 -24 136 -62 22 -88 -82 -165 -220 -165 -109 0
-172 41 -164 107 l4 33 -218 0 c-142 0 -218 4 -218 10 0 6 -13 4 -30 -5 -39
-20 -86 -19 -108 3 -18 18 -20 18 -57 -1 -52 -26 -121 -19 -151 16 -20 23 -22
24 -27 8 -4 -15 -19 -20 -77 -26 -45 -5 -76 -3 -82 3 -7 7 -21 6 -44 -4 -80
-34 -165 -5 -183 63 -6 21 -11 73 -11 116 l0 77 -29 0 c-27 0 -29 -3 -35 -50
-12 -92 -49 -152 -124 -202 l-23 -16 27 -21 c32 -25 38 -26 75 -4 27 16 30 16
46 0 49 -48 -90 -122 -160 -86 -12 7 -39 27 -60 45 -37 34 -77 45 -77 21 0 -7
5 -18 12 -25 9 -9 7 -16 -7 -32 -20 -22 -55 -21 -82 2 -18 15 -16 74 3 93 9 9
15 17 13 18 -2 1 -17 9 -34 18 -16 10 -43 36 -60 59 -29 40 -30 46 -30 143 0
112 15 155 72 209 58 56 165 73 262 41z m4541 4 l45 -2 3 -65 c4 -95 -2 -112
-40 -108 -26 3 -33 9 -45 43 -19 56 -45 75 -105 75 -67 0 -101 -33 -118 -114
-24 -116 13 -210 94 -241 57 -22 106 -15 153 21 29 22 38 25 59 15 13 -6 24
-14 24 -19 0 -13 -52 -58 -89 -77 -42 -21 -157 -23 -221 -4 -99 30 -149 124
-137 256 15 157 111 240 262 227 39 -3 90 -6 115 -7z m885 -14 c79 -41 117
-106 119 -203 2 -174 -84 -272 -239 -272 -162 1 -247 81 -247 232 0 128 53
219 147 255 55 21 168 15 220 -12z m-7090 -59 c0 -38 2 -71 5 -73 3 -2 27 -1
53 3 31 5 53 3 61 -4 10 -7 22 -7 40 0 87 33 171 -23 124 -82 -26 -32 -88 -27
-88 7 0 21 -16 19 -40 -5 -17 -17 -20 -33 -20 -104 l0 -85 38 -3 c32 -3 37 -7
40 -31 l3 -28 -123 3 c-130 3 -125 1 -119 48 0 6 12 10 26 10 25 0 25 0 25 99
l0 100 -27 3 c-16 2 -27 8 -25 16 1 7 -9 17 -23 22 -20 8 -25 16 -25 43 0 43
-15 57 -62 57 l-38 0 0 -170 0 -170 35 0 c32 0 35 -2 35 -30 l0 -31 -127 3
-128 3 0 25 c0 22 5 25 38 28 l37 3 0 170 0 169 -44 0 c-40 0 -45 -3 -55 -31
-6 -18 -11 -41 -11 -51 0 -16 -6 -19 -37 -16 l-36 3 2 80 c1 44 6 82 11 85 4
3 109 4 232 4 l223 -2 0 -68z m3843 63 c7 -1 41 -67 76 -145 36 -79 67 -146
70 -149 6 -6 102 191 126 260 l14 37 68 2 c37 0 73 1 79 2 7 1 17 -7 23 -16
12 -20 -2 -52 -23 -54 -6 -1 -18 -2 -26 -3 -13 -1 -15 -27 -15 -170 l0 -170
33 -3 c27 -2 32 -7 32 -28 l0 -25 -122 -3 -123 -3 0 31 c0 28 3 30 35 30 l35
0 0 103 c-1 118 1 119 -72 -48 -43 -99 -50 -110 -75 -113 -27 -3 -31 2 -88
130 l-60 133 -3 -89 c-2 -49 -1 -95 2 -103 3 -7 19 -13 36 -13 27 0 30 -3 30
-30 l0 -30 -110 0 -110 0 0 29 c0 26 4 30 33 33 l32 3 0 170 0 170 -30 5 c-29
5 -42 27 -32 53 4 11 105 13 165 4z m2828 0 c3 -3 2 -42 -2 -86 -7 -81 -7 -81
-35 -81 l-29 0 0 -75 0 -75 -35 0 c-31 0 -36 3 -41 30 -6 27 -10 30 -45 30
l-39 0 0 -73 0 -74 68 4 c37 3 71 9 77 14 5 6 15 27 20 47 9 32 15 37 40 37
l30 0 0 -80 0 -80 -202 -3 -203 -2 0 30 c0 27 3 30 30 30 l30 0 0 175 0 175
-35 0 c-32 0 -35 3 -35 28 0 16 2 31 4 33 7 6 395 3 402 -4z m-5856 -132 c9
-11 17 -12 33 -4 11 7 49 12 84 12 56 1 67 -3 90 -25 30 -30 42 -83 43 -185 0
-71 0 -72 28 -75 21 -2 27 -8 27 -28 l0 -25 -240 -3 c-132 -1 -257 -5 -278 -8
-26 -4 -45 -1 -63 11 -24 15 -29 15 -65 1 -58 -24 -102 -20 -138 10 -25 21
-31 33 -31 66 0 56 39 91 130 114 50 13 70 23 70 34 0 25 -21 40 -56 40 -28 0
-33 -4 -36 -26 -4 -34 -27 -49 -61 -40 -38 9 -53 41 -33 71 23 36 72 57 141
63 120 9 159 -36 153 -182 -3 -85 -2 -91 16 -88 10 2 22 -1 25 -6 3 -5 21 -7
39 -5 l32 5 0 98 0 99 -27 3 c-22 2 -28 8 -28 27 0 21 8 27 60 41 33 10 63 18
66 19 4 0 12 -6 19 -14z m4756 -243 c34 -22 42 -77 19 -122 -15 -30 -89 -80
-118 -80 -25 0 -33 41 -11 56 11 7 27 21 36 30 16 16 16 18 -7 36 -27 21 -33
56 -13 76 13 13 76 16 94 4z"/>
<path d="M7753 895 c-21 -15 -23 -24 -23 -106 l0 -90 58 3 57 3 3 75 c1 46 -3
85 -11 100 -15 30 -53 37 -84 15z"/>
<path d="M8192 894 c-20 -14 -22 -23 -22 -105 l0 -89 60 0 60 0 0 86 c0 47 -5
94 -10 105 -13 23 -57 25 -88 3z"/>
<path d="M4488 1037 c-14 -13 -31 -41 -38 -62 -16 -49 -8 -170 14 -213 52
-100 198 -93 227 10 30 109 0 241 -62 273 -44 23 -111 19 -141 -8z"/>
<path d="M5830 890 c-18 -18 -20 -31 -18 -103 l3 -82 58 -3 57 -3 0 94 c0 59
-4 97 -12 105 -19 19 -66 14 -88 -8z"/>
<path d="M6230 890 c-16 -29 -1 -70 29 -81 21 -9 29 -7 43 11 22 27 22 39 2
68 -19 28 -60 29 -74 2z"/>
<path d="M5420 767 c-16 -8 -26 -23 -28 -40 -3 -23 0 -27 21 -27 24 0 77 49
77 71 0 13 -41 11 -70 -4z"/>
<path d="M6183 622 c-9 -38 13 -52 83 -52 52 0 68 4 91 24 15 13 24 28 20 33
-5 4 -49 10 -98 13 -87 5 -90 4 -96 -18z"/>
<path d="M9882 1031 c-65 -66 -55 -251 16 -315 13 -11 42 -21 69 -23 85 -8
133 52 133 165 0 90 -9 121 -50 163 -33 35 -42 39 -88 39 -43 0 -55 -5 -80
-29z"/>
<path d="M9450 983 l0 -63 39 0 c34 0 40 4 50 30 8 23 16 30 36 30 23 0 25 3
20 23 -11 33 -15 35 -82 39 l-63 4 0 -63z"/>
<path d="M3862 894 c-20 -14 -22 -23 -22 -105 l0 -89 60 0 60 0 0 79 c0 102
-10 131 -48 131 -15 0 -38 -7 -50 -16z"/>
<path d="M3435 757 c-29 -24 -26 -57 5 -57 26 0 70 38 70 61 0 27 -42 25 -75
-4z"/>
</g>
</svg>
