<svg xmlns="http://www.w3.org/2000/svg" shape-rendering="geometricPrecision" text-rendering="geometricPrecision" image-rendering="optimizeQuality" fill-rule="evenodd" clip-rule="evenodd" viewBox="0 0 454 512.02"><path d="M29.69 40.56h140.44c16.34 0 29.69 13.35 29.69 29.69v81.44c0 16.34-13.35 29.69-29.69 29.69H29.69C13.36 181.38 0 168.03 0 151.69V70.25c0-16.34 13.36-29.69 29.69-29.69zm342.28 19.36 37.85-37.84c4.96-4.96 13.02-4.96 17.99 0 4.96 4.97 4.96 13.03 0 18l-37.45 37.44a113.477 113.477 0 0 0-18.39-17.6zM122.2 243.07h118.74v-32.94c-9.35-3.88-16.02-13.13-16.02-23.85v-37.35c0-10.73 6.65-19.99 16.02-23.87V76.88h-7.73c-5.39 0-10.69.39-15.88 1.15v-7.78c0-4.06-.52-8.01-1.49-11.77 5.68-.77 11.49-1.17 17.37-1.17h35.04c35.9 0 68.54 14.69 92.19 38.35 23.7 23.7 38.39 56.34 38.39 92.23v193.55c0 35.92-14.69 68.57-38.35 92.23-23.69 23.65-56.35 38.35-92.23 38.35h-35.04c-35.92 0-68.57-14.69-92.23-38.35-23.66-23.66-38.35-56.31-38.35-92.23V198.89h19.57v44.18zm138.32 0h118.74v-55.18c0-30.53-12.49-58.29-32.59-78.42-20.13-20.1-47.89-32.59-78.42-32.59h-7.73v48.2c9.38 3.88 16.02 13.16 16.02 23.85v37.35c0 10.68-6.67 19.96-16.02 23.85v32.94zm118.74 19.58H122.2v118.79c0 30.51 12.5 58.27 32.62 78.39 20.12 20.12 47.88 32.62 78.39 32.62h35.04c30.54 0 58.3-12.48 78.39-32.58 20.12-20.16 32.62-47.92 32.62-78.43V262.65zM316.56 37.7l14.77-31.09c3.35-6.15 11.06-8.41 17.2-5.06 6.15 3.36 8.42 11.06 5.06 17.22l-12.77 24.41-24.26-5.48zm98.43 93.81c-1.34-8.37-3.62-16.44-6.7-24.1l26.94-14.54c6.16-3.36 13.86-1.09 17.22 5.05 3.35 6.15 1.09 13.86-5.05 17.21l-32.41 16.38zM42.04 97.25l-2.68-15.37c8.66-2.61 17.3-3.91 25.89-3.91 3.44 0 6.31.1 8.61.31 2.31.2 4.69.71 7.17 1.54 2.48.83 4.43 1.96 5.88 3.4 3.3 3.31 4.95 8.36 4.95 15.17 0 6.81-1.92 11.82-5.78 15.05-3.85 3.24-11.96 6.95-24.34 11.14v2.89h29.08v16.5h-52.9v-12.89c0-3.85.72-7.53 2.16-11.03.9-2 3.06-4.41 6.5-7.23 1.85-1.57 4.35-3.09 7.48-4.53 3.13-1.45 6.08-2.81 8.87-4.07 2.78-1.28 5.04-2.33 6.75-3.15V95.5c-3.09-.35-5.95-.52-8.56-.52-6.32 0-12.69.76-19.08 2.27zm82.21-17.74 7.12 17.23h1.03l7.11-17.23h22.39l-14.34 31.15 14.34 33.31H139l-7.74-18.56h-.93l-7.63 18.56h-21.86l14.02-32.69-14.02-31.77h23.41z" fill="#FFFFFF"/></svg>