<svg id="l_d_10200" xmlns="http://www.w3.org/2000/svg" xmlns:xlink="http://www.w3.org/1999/xlink" viewBox="0 0 45 45" width="45" height="45" preserveAspectRatio="xMidYMid meet" style="width: 100%; height: 100%; transform: translate3d(0px, 0px, 0px); content-visibility: visible;"><defs id="l_d_10201"><clipPath id="__lottie_element_4288"><rect id="l_d_10204" width="45" height="45" x="0" y="0"></rect></clipPath><g id="__lottie_element_4291"><g id="l_d_10205" style="display: none;"><g id="l_d_10210"><path id="l_d_10211"></path></g></g></g><mask id="__lottie_element_4291_1" mask-type="alpha"><use id="l_d_10224" xlink:href="#__lottie_element_4291"></use></mask><g id="__lottie_element_4306"><g id="l_d_10243" style="display: none;"><g id="l_d_10248"><path id="l_d_10249"></path></g></g></g><mask id="__lottie_element_4306_1" mask-type="alpha"><use id="l_d_10257" xlink:href="#__lottie_element_4306"></use></mask></defs><g id="l_d_10202" clip-path="url(#__lottie_element_4288)"><g id="l_d_10251" mask="url(#__lottie_element_4306_1)" style="display: none;"><g id="l_d_10250"><g id="l_d_10254"><path id="l_d_10255" stroke-linecap="butt" stroke-linejoin="miter" fill-opacity="0" stroke-miterlimit="4"></path></g></g></g><g id="l_d_10237" transform="matrix(1,0,0,1,-22.625,-17.5)" opacity="1" style="display: block;"><g id="l_d_10241" opacity="1" transform="matrix(1,0,0,1,40,40)"><path id="l_d_10242" stroke-linecap="butt" stroke-linejoin="miter" fill-opacity="0" stroke-miterlimit="4" stroke="rgb(34,34,34)" stroke-opacity="1" stroke-width="2" d=" M-10,-12 C-10,-12 10,-12 10,-12 C12.208999633789062,-12 14,-10.208999633789062 14,-8 C14,-8 14,8 14,8 C14,10.208999633789062 12.208999633789062,12 10,12 C10,12 -10,12 -10,12 C-12.208999633789062,12 -14,10.208999633789062 -14,8 C-14,8 -14,-8 -14,-8 C-14,-10.208999633789062 -12.208999633789062,-12 -10,-12z"></path></g></g><g id="l_d_10231" transform="matrix(1,0,0,1,-22.625,-17.5)" opacity="1" style="display: block;"><g id="l_d_10235" opacity="1" transform="matrix(1,0,0,1,40,40)"><path id="l_d_10236" stroke-linecap="butt" stroke-linejoin="miter" fill-opacity="0" stroke-miterlimit="4" stroke="rgb(34,34,34)" stroke-opacity="1" stroke-width="2" d=" M-2,2 C-2.062000036239624,2.875 -2,6 -2,6 C-2,6 2,6 2,6 C2,6 2,2 2,2 C2,2 6,2 6,2 C6,2 6,-2 6,-2 C6,-2 2,-2 2,-2 C2,-2 2,-6 2,-6 C2,-6 -2,-6 -2,-6 C-2,-6 -2,-2 -2,-2 C-2,-2 -6,-2 -6,-2 C-6,-2 -6,2 -6,2 C-6,2 -3,1.937999963760376 -2,2z"></path></g></g><g id="l_d_10225" style="display: none;"><g id="l_d_10229"><path id="l_d_10230" stroke-linecap="butt" stroke-linejoin="miter" fill-opacity="0" stroke-miterlimit="4"></path></g></g><g id="l_d_10213" mask="url(#__lottie_element_4291_1)" style="display: none;"><g id="l_d_10212"><g id="l_d_10216"><g id="l_d_10217"><path id="l_d_10218" stroke-linecap="butt" stroke-linejoin="round" fill-opacity="0"></path></g><g id="l_d_10219"><path id="l_d_10220" stroke-linecap="butt" stroke-linejoin="round" fill-opacity="0"></path></g><g id="l_d_10221"><path id="l_d_10222"></path></g></g></g></g></g></svg>