<?xml version="1.0" standalone="no"?>
<!DOCTYPE svg PUBLIC "-//W3C//DTD SVG 20010904//EN"
 "http://www.w3.org/TR/2001/REC-SVG-20010904/DTD/svg10.dtd">
<svg version="1.0" xmlns="http://www.w3.org/2000/svg"
 width="64.000000pt" height="64.000000pt" viewBox="0 0 64.000000 64.000000"
 preserveAspectRatio="xMidYMid meet">

<g transform="translate(0.000000,64.000000) scale(0.100000,-0.100000)"
fill="#000000" stroke="none">
<path d="M540 590 l0 -30 -260 0 c-253 0 -260 -1 -260 -20 0 -13 7 -20 20 -20
18 0 20 -8 22 -157 l3 -158 255 0 255 0 3 158 c2 149 4 157 22 157 13 0 20 7
20 20 0 13 -7 20 -20 20 -16 0 -20 7 -20 30 0 23 -4 30 -20 30 -16 0 -20 -7
-20 -30z m0 -210 l0 -140 -70 0 -69 0 -3 88 -3 87 -75 0 -75 0 -3 -87 -3 -88
-69 0 -70 0 0 140 0 140 220 0 220 0 0 -140z m-180 -70 l0 -70 -40 0 -40 0 0
70 0 70 40 0 40 0 0 -70z"/>
<path d="M464 469 c-10 -17 13 -36 27 -22 12 12 4 33 -11 33 -5 0 -12 -5 -16
-11z"/>
<path d="M260 140 c0 -18 7 -20 60 -20 53 0 60 2 60 20 0 18 -7 20 -60 20 -53
0 -60 -2 -60 -20z"/>
<path d="M220 60 c0 -19 7 -20 100 -20 93 0 100 1 100 20 0 19 -7 20 -100 20
-93 0 -100 -1 -100 -20z"/>
</g>
</svg>
