<svg id="l_d_1768" xmlns="http://www.w3.org/2000/svg" xmlns:xlink="http://www.w3.org/1999/xlink" viewBox="0 0 45 45" width="45" height="45" preserveAspectRatio="xMidYMid meet" style="width: 100%; height: 100%; transform: translate3d(0px, 0px, 0px); content-visibility: visible;"><defs id="l_d_1769"><clipPath id="__lottie_element_735"><rect id="l_d_1772" width="45" height="45" x="0" y="0"></rect></clipPath><clipPath id="__lottie_element_738"><path id="l_d_1776" d="M0,0 L32,0 L32,32 L0,32z"></path></clipPath><g id="__lottie_element_744"><g id="l_d_1785" transform="matrix(1,0,0,1,16,21.5)" opacity="1" style="display: block;"><g id="l_d_1790" opacity="1" transform="matrix(1,0,0,1,0,0)"><path id="l_d_1791" fill="rgb(0,0,0)" fill-opacity="1" d=" M1,0.5799999833106995 C1,0.5799999833106995 1,-1.684000015258789 1,-1.684000015258789 C2.1610000133514404,-2.0980000495910645 3,-3.197999954223633 3,-4.5 C3,-6.1539998054504395 1.6540000438690186,-7.5 0,-7.5 C-1.6540000438690186,-7.5 -3,-6.1539998054504395 -3,-4.5 C-3,-3.197999954223633 -2.1610000133514404,-2.0980000495910645 -1,-1.684000015258789 C-1,-1.684000015258789 -1,0.5799999833106995 -1,0.5799999833106995 C-4.38700008392334,1.0679999589920044 -7,3.9809999465942383 -7,7.5 C-7,7.5 7,7.5 7,7.5 C7,3.9809999465942383 4.386000156402588,1.0679999589920044 1,0.5799999833106995z"></path></g></g></g><filter id="__lottie_element_750" filterUnits="objectBoundingBox" x="0%" y="0%" width="100%" height="100%"><feComponentTransfer id="l_d_1801" in="SourceGraphic"><feFuncA id="l_d_1802" type="table" tableValues="1.0 0.0"></feFuncA></feComponentTransfer></filter><mask id="__lottie_element_744_2" mask-type="alpha"><g id="l_d_1799" filter="url(#__lottie_element_750)"><rect id="l_d_1803" width="32" height="32" x="0" y="0" fill="#ffffff" opacity="0"></rect><use id="l_d_1804" xlink:href="#__lottie_element_744"></use></g></mask><g id="__lottie_element_751"><g id="l_d_1805" transform="matrix(1,0,0,1,16,21.5)" opacity="1" style="display: block;"><g id="l_d_1810" opacity="1" transform="matrix(1,0,0,1,0,0)"><path id="l_d_1811" fill="rgb(0,0,0)" fill-opacity="1" d=" M1,0.5799999833106995 C1,0.5799999833106995 1,-1.684000015258789 1,-1.684000015258789 C2.1610000133514404,-2.0980000495910645 3,-3.197999954223633 3,-4.5 C3,-6.1539998054504395 1.6540000438690186,-7.5 0,-7.5 C-1.6540000438690186,-7.5 -3,-6.1539998054504395 -3,-4.5 C-3,-3.197999954223633 -2.1610000133514404,-2.0980000495910645 -1,-1.684000015258789 C-1,-1.684000015258789 -1,0.5799999833106995 -1,0.5799999833106995 C-4.38700008392334,1.0679999589920044 -7,3.9809999465942383 -7,7.5 C-7,7.5 7,7.5 7,7.5 C7,3.9809999465942383 4.386000156402588,1.0679999589920044 1,0.5799999833106995z"></path></g></g></g><filter id="__lottie_element_757" filterUnits="objectBoundingBox" x="0%" y="0%" width="100%" height="100%"><feComponentTransfer id="l_d_1821" in="SourceGraphic"><feFuncA id="l_d_1822" type="table" tableValues="1.0 0.0"></feFuncA></feComponentTransfer></filter><mask id="__lottie_element_751_2" mask-type="alpha"><g id="l_d_1819" filter="url(#__lottie_element_757)"><rect id="l_d_1823" width="32" height="32" x="0" y="0" fill="#ffffff" opacity="0"></rect><use id="l_d_1824" xlink:href="#__lottie_element_751"></use></g></mask><g id="__lottie_element_760"><g id="l_d_1825" transform="matrix(1,0,0,1,16,21.5)" opacity="1" style="display: block;"><g id="l_d_1830" opacity="1" transform="matrix(1,0,0,1,0,0)"><path id="l_d_1831" fill="rgb(0,0,0)" fill-opacity="1" d=" M1,0.5799999833106995 C1,0.5799999833106995 1,-1.684000015258789 1,-1.684000015258789 C2.1610000133514404,-2.0980000495910645 3,-3.197999954223633 3,-4.5 C3,-6.1539998054504395 1.6540000438690186,-7.5 0,-7.5 C-1.6540000438690186,-7.5 -3,-6.1539998054504395 -3,-4.5 C-3,-3.197999954223633 -2.1610000133514404,-2.0980000495910645 -1,-1.684000015258789 C-1,-1.684000015258789 -1,0.5799999833106995 -1,0.5799999833106995 C-4.38700008392334,1.0679999589920044 -7,3.9809999465942383 -7,7.5 C-7,7.5 7,7.5 7,7.5 C7,3.9809999465942383 4.386000156402588,1.0679999589920044 1,0.5799999833106995z"></path></g></g></g><filter id="__lottie_element_766" filterUnits="objectBoundingBox" x="0%" y="0%" width="100%" height="100%"><feComponentTransfer id="l_d_1841" in="SourceGraphic"><feFuncA id="l_d_1842" type="table" tableValues="1.0 0.0"></feFuncA></feComponentTransfer></filter><mask id="__lottie_element_760_2" mask-type="alpha"><g id="l_d_1839" filter="url(#__lottie_element_766)"><rect id="l_d_1843" width="32" height="32" x="0" y="0" fill="#ffffff" opacity="0"></rect><use id="l_d_1844" xlink:href="#__lottie_element_760"></use></g></mask></defs><g id="l_d_1770" clip-path="url(#__lottie_element_735)"><g id="l_d_1773" clip-path="url(#__lottie_element_738)" transform="matrix(1,0,0,1,0,6.5)" opacity="1" style="display: block;"><g id="l_d_1833" mask="url(#__lottie_element_760_2)" style="display: block;"><g id="l_d_1832" transform="matrix(1,0,0,1,16,11.5)" opacity="1"><g id="l_d_1836" opacity="1" transform="matrix(1,0,0,1,0,0)"><path id="l_d_1837" fill="rgb(0,0,0)" fill-opacity="1" d=" M-1,-1.5 C-1,-1.5 1,-1.5 1,-1.5 C1,-1.5 1,2.549999952316284 1,2.549999952316284 C1,2.549999952316284 -1,2.549999952316284 -1,2.549999952316284 C-1,2.549999952316284 -1,-1.5 -1,-1.5z"></path></g></g></g><g id="l_d_1813" mask="url(#__lottie_element_751_2)" style="display: block;"><g id="l_d_1812" transform="matrix(1,0,0,1,22,14.5)" opacity="1"><g id="l_d_1816" opacity="1" transform="matrix(1,0,0,1,0,0)"><path id="l_d_1817" fill="rgb(0,0,0)" fill-opacity="1" d=" M3.625999927520752,1.2690000534057617 C5.065000057220459,0.1720000058412552 6,-1.5549999475479126 6,-3.5 C6,-6.809000015258789 3.309000015258789,-9.5 0,-9.5 C-3.309000015258789,-9.5 -6,-6.809000015258789 -6,-3.5 C-6,-1.5549999475479126 -5.065000057220459,0.1720000058412552 -3.625999927520752,1.2690000534057617 C-6.7870001792907715,2.6670000553131104 -9,5.828000068664551 -9,9.5 C-9,9.5 -7,9.5 -7,9.5 C-7,6.168000221252441 -4.6570000648498535,3.377000093460083 -1.5329999923706055,2.674999952316284 C-1.5329999923706055,2.674999952316284 -1.5329999923706055,0.19200000166893005 -1.5329999923706055,0.19200000166893005 C-2.9790000915527344,-0.41100001335144043 -4,-1.8380000591278076 -4,-3.5 C-4,-5.705999851226807 -2.2060000896453857,-7.5 0,-7.5 C2.2060000896453857,-7.5 4,-5.705999851226807 4,-3.5 C4,-1.812999963760376 2.947999954223633,-0.37400001287460327 1.4670000076293945,0.21299999952316284 C1.4670000076293945,0.21299999952316284 1.4670000076293945,2.6570000648498535 1.4670000076293945,2.6570000648498535 C4.624000072479248,3.3329999446868896 7,6.144000053405762 7,9.5 C7,9.5 9,9.5 9,9.5 C9,5.828000068664551 6.7870001792907715,2.6670000553131104 3.625999927520752,1.2690000534057617z"></path></g></g></g><g id="l_d_1793" mask="url(#__lottie_element_744_2)" style="display: block;"><g id="l_d_1792" transform="matrix(1,0,0,1,10,14.5)" opacity="1"><g id="l_d_1796" opacity="1" transform="matrix(1,0,0,1,0,0)"><path id="l_d_1797" fill="rgb(0,0,0)" fill-opacity="1" d=" M3.625999927520752,1.2690000534057617 C5.065000057220459,0.1720000058412552 6,-1.5549999475479126 6,-3.5 C6,-6.809000015258789 3.309000015258789,-9.5 0,-9.5 C-3.309000015258789,-9.5 -6,-6.809000015258789 -6,-3.5 C-6,-1.5549999475479126 -5.065000057220459,0.1720000058412552 -3.625999927520752,1.2690000534057617 C-6.785999774932861,2.6670000553131104 -9,5.828000068664551 -9,9.5 C-9,9.5 -7,9.5 -7,9.5 C-7,6.156000137329102 -4.640999794006348,3.3550000190734863 -1.5,2.6659998893737793 C-1.5,2.6659998893737793 -1.5,0.20200000703334808 -1.5,0.20200000703334808 C-2.9630000591278076,-0.3930000066757202 -4,-1.8250000476837158 -4,-3.5 C-4,-5.705999851226807 -2.2060000896453857,-7.5 0,-7.5 C2.2060000896453857,-7.5 4,-5.705999851226807 4,-3.5 C4,-1.8250000476837158 2.9630000591278076,-0.3930000066757202 1.5,0.20200000703334808 C1.5,0.20200000703334808 1.5,2.6659998893737793 1.5,2.6659998893737793 C4.640999794006348,3.3550000190734863 7,6.156000137329102 7,9.5 C7,9.5 9,9.5 9,9.5 C9,5.828000068664551 6.785999774932861,2.6670000553131104 3.625999927520752,1.2690000534057617z"></path></g></g></g><g id="l_d_1779" transform="matrix(1,0,0,1,16,20.5)" opacity="1" style="display: block;"><g id="l_d_1783" opacity="1" transform="matrix(1,0,0,1,0,0)"><path id="l_d_1784" fill="rgb(0,0,0)" fill-opacity="1" d=" M3.377000093460083,0.16300000250339508 C4.368000030517578,-0.7509999871253967 5,-2.0490000247955322 5,-3.5 C5,-6.256999969482422 2.756999969482422,-8.5 0,-8.5 C-2.756999969482422,-8.5 -5,-6.256999969482422 -5,-3.5 C-5,-2.0490000247955322 -4.368000030517578,-0.7509999871253967 -3.377000093460083,0.16300000250339508 C-6.670000076293945,1.5019999742507935 -9,4.73199987411499 -9,8.5 C-9,8.5 -7,8.5 -7,8.5 C-7,4.980999946594238 -4.38700008392334,2.068000078201294 -1,1.5800000429153442 C-1,1.5800000429153442 -1,-0.6840000152587891 -1,-0.6840000152587891 C-2.1610000133514404,-1.0980000495910645 -3,-2.197999954223633 -3,-3.5 C-3,-5.1539998054504395 -1.6540000438690186,-6.5 0,-6.5 C1.6540000438690186,-6.5 3,-5.1539998054504395 3,-3.5 C3,-2.197999954223633 2.1610000133514404,-1.0980000495910645 1,-0.6840000152587891 C1,-0.6840000152587891 1,1.5800000429153442 1,1.5800000429153442 C4.386000156402588,2.068000078201294 7,4.980999946594238 7,8.5 C7,8.5 9,8.5 9,8.5 C9,4.73199987411499 6.670000076293945,1.5019999742507935 3.377000093460083,0.16300000250339508z"></path></g></g></g></g></svg>