<svg id="l_d_1902" xmlns="http://www.w3.org/2000/svg" xmlns:xlink="http://www.w3.org/1999/xlink" viewBox="0 0 45 45" width="45" height="45" preserveAspectRatio="xMidYMid meet" style="width: 100%; height: 100%; transform: translate3d(0px, 0px, 0px); content-visibility: visible;"><defs id="l_d_1903"><clipPath id="__lottie_element_797"><rect id="l_d_1906" width="45" height="45" x="0" y="0"></rect></clipPath><clipPath id="__lottie_element_800"><path id="l_d_1910" d="M0,0 L32,0 L32,32 L0,32z"></path></clipPath><g id="__lottie_element_805"><g id="l_d_1921" transform="matrix(1,0,0,1,-144,-144)" opacity="1" style="display: block;"><g id="l_d_1926" opacity="1" transform="matrix(1,0,0,1,154,160)"><path id="l_d_1927" fill="rgb(255,255,255)" fill-opacity="1" d=" M-1,-2 C-1,-2 1,-2 1,-2 C1,-2 1,2 1,2 C1,2 -1,2 -1,2 C-1,2 -1,-2 -1,-2z"></path></g></g></g><g id="__lottie_element_811"><g id="l_d_1928" transform="matrix(1,0,0,1,-144,-144)" opacity="1" style="display: block;"><g id="l_d_1933" opacity="1" transform="matrix(1,0,0,1,154,164.5)"><path id="l_d_1934" stroke-linecap="butt" stroke-linejoin="miter" fill-opacity="0" stroke-miterlimit="4" stroke="rgb(0,0,0)" stroke-opacity="1" stroke-width="2" d=" M0,-4.5 C-4.9710001945495605,-4.5 -9,-0.47099998593330383 -9,4.5 C-9,9.470999717712402 -6.25,12.907999992370605 -0.5,12.899999618530273 C5.1519999504089355,12.892000198364258 9,9.470999717712402 9,4.5 C9,-0.47099998593330383 4.9710001945495605,-4.5 0,-4.5z"></path><path id="l_d_1935" fill="rgb(255,255,255)" fill-opacity="1" d=" M0,-4.5 C-4.9710001945495605,-4.5 -9,-0.47099998593330383 -9,4.5 C-9,9.470999717712402 -6.25,12.907999992370605 -0.5,12.899999618530273 C5.1519999504089355,12.892000198364258 9,9.470999717712402 9,4.5 C9,-0.47099998593330383 4.9710001945495605,-4.5 0,-4.5z"></path></g><g id="l_d_1936" opacity="1" transform="matrix(1,0,0,1,154,164.5)"><path id="l_d_1937" fill="rgb(255,255,255)" fill-opacity="1" d=" M-9,4.5 C-9,-0.47099998593330383 -4.9710001945495605,-4.5 0,-4.5 C4.9710001945495605,-4.5 9,-0.47099998593330383 9,4.5"></path><path id="l_d_1938" stroke-linecap="butt" stroke-linejoin="miter" fill-opacity="0" stroke-miterlimit="4" stroke="rgb(0,0,0)" stroke-opacity="1" stroke-width="2" d=" M-9,4.5 C-9,-0.47099998593330383 -4.9710001945495605,-4.5 0,-4.5 C4.9710001945495605,-4.5 9,-0.47099998593330383 9,4.5"></path></g><g id="l_d_1939" opacity="1" transform="matrix(1,0,0,1,154,156)"><path id="l_d_1940" fill="rgb(255,255,255)" fill-opacity="1" d=" M0,-4 C2.2090001106262207,-4 4,-2.2090001106262207 4,0 C4,2.2090001106262207 2.2090001106262207,4 0,4 C-2.2090001106262207,4 -4,2.2090001106262207 -4,0 C-4,-2.2090001106262207 -2.2090001106262207,-4 0,-4z"></path><path id="l_d_1941" stroke-linecap="butt" stroke-linejoin="miter" fill-opacity="0" stroke-miterlimit="4" stroke="rgb(0,0,0)" stroke-opacity="1" stroke-width="2" d=" M0,-4 C2.2090001106262207,-4 4,-2.2090001106262207 4,0 C4,2.2090001106262207 2.2090001106262207,4 0,4 C-2.2090001106262207,4 -4,2.2090001106262207 -4,0 C-4,-2.2090001106262207 -2.2090001106262207,-4 0,-4z"></path></g><g id="l_d_1942" opacity="1" transform="matrix(1,0,0,1,154,160)"><path id="l_d_1943" fill="rgb(255,255,255)" fill-opacity="1" d=" M-1,-2 C-1,-2 1,-2 1,-2 C1,-2 1,2 1,2 C1,2 -1,2 -1,2 C-1,2 -1,-2 -1,-2z"></path></g></g></g><mask id="__lottie_element_815"><rect id="l_d_1946" fill="#ffffff" width="32" height="32" transform="matrix(1,0,0,1,144,144)"></rect><path id="l_d_1947" fill="#000000" clip-rule="nonzero" d=" M165,158 C165,158 167,158 167,158 C167,158 167,162 167,162 C167,162 165,162 165,162 C165,162 165,158 165,158" fill-opacity="1"></path></mask><filter id="__lottie_element_817" filterUnits="objectBoundingBox" x="0%" y="0%" width="100%" height="100%"><feComponentTransfer id="l_d_1955" in="SourceGraphic"><feFuncA id="l_d_1956" type="table" tableValues="1.0 0.0"></feFuncA></feComponentTransfer></filter><mask id="__lottie_element_811_2" mask-type="alpha"><g id="l_d_1953" filter="url(#__lottie_element_817)"><rect id="l_d_1957" width="32" height="32" x="0" y="0" fill="#ffffff" opacity="0"></rect><use id="l_d_1958" xlink:href="#__lottie_element_811"></use></g></mask><filter id="__lottie_element_818" filterUnits="objectBoundingBox" x="0%" y="0%" width="100%" height="100%"><feComponentTransfer id="l_d_1962" in="SourceGraphic"><feFuncA id="l_d_1963" type="table" tableValues="1.0 0.0"></feFuncA></feComponentTransfer></filter><mask id="__lottie_element_805_2" mask-type="alpha"><g id="l_d_1960" filter="url(#__lottie_element_818)"><rect id="l_d_1964" width="32" height="32" x="0" y="0" fill="#ffffff" opacity="0"></rect><use id="l_d_1965" xlink:href="#__lottie_element_805"></use></g></mask></defs><g id="l_d_1904" clip-path="url(#__lottie_element_797)"><g id="l_d_1907" clip-path="url(#__lottie_element_800)" transform="matrix(1,0,0,1,0,6.5)" opacity="1" style="display: block;"><g id="l_d_1945" mask="url(#__lottie_element_811_2)" style="display: block;"><g id="l_d_1944" mask="url(#__lottie_element_815)" transform="matrix(1,0,0,1,-144,-144)" opacity="1"><path id="l_d_1950" stroke-linecap="butt" stroke-linejoin="miter" fill-opacity="0" stroke-miterlimit="4" stroke="rgb(0,0,0)" stroke-opacity="1" stroke-width="2" d=" M157,169 C157,164.03 161.03,160 166,160 C170.97,160 175,164.03 175,169 M166,152 C168.21,152 170,153.79 170,156 C170,158.21 168.21,160 166,160 C163.79,160 162,158.21 162,156 C162,153.79 163.79,152 166,152z"></path><g id="l_d_1951" opacity="1" transform="matrix(1,0,0,1,166,160.5)"></g></g></g><g id="l_d_1914" mask="url(#__lottie_element_805_2)" style="display: block;"><g id="l_d_1913" transform="matrix(1,0,0,1,-144,-144)" opacity="1"><g id="l_d_1917" opacity="1" transform="matrix(1,0,0,1,154,164.5)"><path id="l_d_1918" stroke-linecap="butt" stroke-linejoin="miter" fill-opacity="0" stroke-miterlimit="4" stroke="rgb(0,0,0)" stroke-opacity="1" stroke-width="2" d=" M-9,4.5 C-9,-0.47099998593330383 -4.9710001945495605,-4.5 0,-4.5 C4.9710001945495605,-4.5 9,-0.47099998593330383 9,4.5"></path></g><g id="l_d_1919" opacity="1" transform="matrix(1,0,0,1,154,156)"><path id="l_d_1920" stroke-linecap="butt" stroke-linejoin="miter" fill-opacity="0" stroke-miterlimit="4" stroke="rgb(0,0,0)" stroke-opacity="1" stroke-width="2" d=" M0,-4 C2.2090001106262207,-4 4,-2.2090001106262207 4,0 C4,2.2090001106262207 2.2090001106262207,4 0,4 C-2.2090001106262207,4 -4,2.2090001106262207 -4,0 C-4,-2.2090001106262207 -2.2090001106262207,-4 0,-4z"></path></g></g></g></g></g></svg>