<svg viewBox="0 0 32 32" xmlns="http://www.w3.org/2000/svg" aria-hidden="true" role="presentation" focusable="false" style="display: block; height: 24px; width: 24px; fill: currentcolor;"><path d="M13.92 1.112a3 3 0 0 1 4.017-.129l.142.13 11.307 10.871a2 2 0 0 1 .606 1.261l.008.18V27a3 3 0 0 1-2.824 2.995L27 30H5a3 3 0 0 1-2.995-2.824L2 27V13.426a2 2 0 0 1 .49-1.311l.124-.13L13.92 1.111zm2.773 1.442a1 1 0 0 0-1.293-.08l-.093.08L4 13.426V27a1 1 0 0 0 .883.993L5 28h22a1 1 0 0 0 .993-.883L28 27V13.426L16.693 2.554zM22 12.586L23.414 14 14 23.414 8.586 18 10 16.586l4 3.999 8-8z"></path></svg>