<svg id="l_d_7457" xmlns="http://www.w3.org/2000/svg" xmlns:xlink="http://www.w3.org/1999/xlink" viewBox="0 0 45 45" width="45" height="45" preserveAspectRatio="xMidYMid meet" style="width: 100%; height: 100%; transform: translate3d(0px, 0px, 0px); content-visibility: visible;"><defs id="l_d_7458"><clipPath id="__lottie_element_3156"><rect id="l_d_7461" width="45" height="45" x="0" y="0"></rect></clipPath><clipPath id="__lottie_element_3158"><path id="l_d_7464" fill="#ffffff" clip-rule="nonzero" d=" M11.722000122070312,2.2880001068115234 C11.722000122070312,2.2880001068115234 -10.972000122070312,2.2880001068115234 -10.972000122070312,2.2880001068115234 C-10.972000122070312,2.2880001068115234 -10.972000122070312,6.083000183105469 -10.972000122070312,6.083000183105469 C-10.972000122070312,6.083000183105469 11.722000122070312,6.083000183105469 11.722000122070312,6.083000183105469 C11.722000122070312,6.083000183105469 11.722000122070312,2.2880001068115234 11.722000122070312,2.2880001068115234" fill-opacity="1"></path><path id="l_d_7465" fill="#ffffff" clip-rule="nonzero" d=" M11.722000122070312,2.2880001068115234 C11.722000122070312,2.2880001068115234 -10.972000122070312,2.2880001068115234 -10.972000122070312,2.2880001068115234 C-10.972000122070312,2.2880001068115234 -10.972000122070312,6.083000183105469 -10.972000122070312,6.083000183105469 C-10.972000122070312,6.083000183105469 11.722000122070312,6.083000183105469 11.722000122070312,6.083000183105469 C11.722000122070312,6.083000183105469 11.722000122070312,2.2880001068115234 11.722000122070312,2.2880001068115234" fill-opacity="1"></path></clipPath><clipPath id="__lottie_element_3161"><path id="l_d_7472" fill="#ffffff" clip-rule="nonzero" d=" M11.722000122070312,2.2880001068115234 C11.722000122070312,2.2880001068115234 -10.972000122070312,2.2880001068115234 -10.972000122070312,2.2880001068115234 C-10.972000122070312,2.2880001068115234 -10.972000122070312,6.083000183105469 -10.972000122070312,6.083000183105469 C-10.972000122070312,6.083000183105469 11.722000122070312,6.083000183105469 11.722000122070312,6.083000183105469 C11.722000122070312,6.083000183105469 11.722000122070312,2.2880001068115234 11.722000122070312,2.2880001068115234" fill-opacity="1"></path><path id="l_d_7473" fill="#ffffff" clip-rule="nonzero" d=" M11.722000122070312,2.2880001068115234 C11.722000122070312,2.2880001068115234 -10.972000122070312,2.2880001068115234 -10.972000122070312,2.2880001068115234 C-10.972000122070312,2.2880001068115234 -10.972000122070312,6.083000183105469 -10.972000122070312,6.083000183105469 C-10.972000122070312,6.083000183105469 11.722000122070312,6.083000183105469 11.722000122070312,6.083000183105469 C11.722000122070312,6.083000183105469 11.722000122070312,2.2880001068115234 11.722000122070312,2.2880001068115234" fill-opacity="1"></path></clipPath><clipPath id="__lottie_element_3164"><path id="l_d_7480" fill="#ffffff" clip-rule="nonzero" d=" M11.722000122070312,2.2880001068115234 C11.722000122070312,2.2880001068115234 -10.972000122070312,2.2880001068115234 -10.972000122070312,2.2880001068115234 C-10.972000122070312,2.2880001068115234 -10.972000122070312,6.083000183105469 -10.972000122070312,6.083000183105469 C-10.972000122070312,6.083000183105469 11.722000122070312,6.083000183105469 11.722000122070312,6.083000183105469 C11.722000122070312,6.083000183105469 11.722000122070312,2.2880001068115234 11.722000122070312,2.2880001068115234" fill-opacity="1"></path><path id="l_d_7481" fill="#ffffff" clip-rule="nonzero" d=" M11.722000122070312,2.2880001068115234 C11.722000122070312,2.2880001068115234 -10.972000122070312,2.2880001068115234 -10.972000122070312,2.2880001068115234 C-10.972000122070312,2.2880001068115234 -10.972000122070312,6.083000183105469 -10.972000122070312,6.083000183105469 C-10.972000122070312,6.083000183105469 11.722000122070312,6.083000183105469 11.722000122070312,6.083000183105469 C11.722000122070312,6.083000183105469 11.722000122070312,2.2880001068115234 11.722000122070312,2.2880001068115234" fill-opacity="1"></path></clipPath><clipPath id="__lottie_element_3167"><path id="l_d_7488" fill="#ffffff" clip-rule="nonzero" d=" M11.722000122070312,2.2880001068115234 C11.722000122070312,2.2880001068115234 -10.972000122070312,2.2880001068115234 -10.972000122070312,2.2880001068115234 C-10.972000122070312,2.2880001068115234 -10.972000122070312,6.083000183105469 -10.972000122070312,6.083000183105469 C-10.972000122070312,6.083000183105469 11.722000122070312,6.083000183105469 11.722000122070312,6.083000183105469 C11.722000122070312,6.083000183105469 11.722000122070312,2.2880001068115234 11.722000122070312,2.2880001068115234" fill-opacity="1"></path><path id="l_d_7489" fill="#ffffff" clip-rule="nonzero" d=" M11.722000122070312,2.2880001068115234 C11.722000122070312,2.2880001068115234 -10.972000122070312,2.2880001068115234 -10.972000122070312,2.2880001068115234 C-10.972000122070312,2.2880001068115234 -10.972000122070312,6.083000183105469 -10.972000122070312,6.083000183105469 C-10.972000122070312,6.083000183105469 11.722000122070312,6.083000183105469 11.722000122070312,6.083000183105469 C11.722000122070312,6.083000183105469 11.722000122070312,2.2880001068115234 11.722000122070312,2.2880001068115234" fill-opacity="1"></path></clipPath><clipPath id="__lottie_element_3170"><path id="l_d_7496" fill="#ffffff" clip-rule="nonzero" d=" M11.722000122070312,2.2880001068115234 C11.722000122070312,2.2880001068115234 -10.972000122070312,2.2880001068115234 -10.972000122070312,2.2880001068115234 C-10.972000122070312,2.2880001068115234 -10.972000122070312,6.083000183105469 -10.972000122070312,6.083000183105469 C-10.972000122070312,6.083000183105469 11.722000122070312,6.083000183105469 11.722000122070312,6.083000183105469 C11.722000122070312,6.083000183105469 11.722000122070312,2.2880001068115234 11.722000122070312,2.2880001068115234" fill-opacity="1"></path><path id="l_d_7497" fill="#ffffff" clip-rule="nonzero" d=" M11.722000122070312,2.2880001068115234 C11.722000122070312,2.2880001068115234 -10.972000122070312,2.2880001068115234 -10.972000122070312,2.2880001068115234 C-10.972000122070312,2.2880001068115234 -10.972000122070312,6.083000183105469 -10.972000122070312,6.083000183105469 C-10.972000122070312,6.083000183105469 11.722000122070312,6.083000183105469 11.722000122070312,6.083000183105469 C11.722000122070312,6.083000183105469 11.722000122070312,2.2880001068115234 11.722000122070312,2.2880001068115234" fill-opacity="1"></path></clipPath><clipPath id="__lottie_element_3173"><path id="l_d_7504" fill="#ffffff" clip-rule="nonzero" d=" M11.722000122070312,2.2880001068115234 C11.722000122070312,2.2880001068115234 -10.972000122070312,2.2880001068115234 -10.972000122070312,2.2880001068115234 C-10.972000122070312,2.2880001068115234 -10.972000122070312,6.083000183105469 -10.972000122070312,6.083000183105469 C-10.972000122070312,6.083000183105469 11.722000122070312,6.083000183105469 11.722000122070312,6.083000183105469 C11.722000122070312,6.083000183105469 11.722000122070312,2.2880001068115234 11.722000122070312,2.2880001068115234" fill-opacity="1"></path><path id="l_d_7505" fill="#ffffff" clip-rule="nonzero" d=" M11.722000122070312,2.2880001068115234 C11.722000122070312,2.2880001068115234 -10.972000122070312,2.2880001068115234 -10.972000122070312,2.2880001068115234 C-10.972000122070312,2.2880001068115234 -10.972000122070312,6.083000183105469 -10.972000122070312,6.083000183105469 C-10.972000122070312,6.083000183105469 11.722000122070312,6.083000183105469 11.722000122070312,6.083000183105469 C11.722000122070312,6.083000183105469 11.722000122070312,2.2880001068115234 11.722000122070312,2.2880001068115234" fill-opacity="1"></path></clipPath><clipPath id="__lottie_element_3176"><path id="l_d_7512" fill="#ffffff" clip-rule="nonzero" d=" M11.722000122070312,2.2880001068115234 C11.722000122070312,2.2880001068115234 -10.972000122070312,2.2880001068115234 -10.972000122070312,2.2880001068115234 C-10.972000122070312,2.2880001068115234 -10.972000122070312,6.083000183105469 -10.972000122070312,6.083000183105469 C-10.972000122070312,6.083000183105469 11.722000122070312,6.083000183105469 11.722000122070312,6.083000183105469 C11.722000122070312,6.083000183105469 11.722000122070312,2.2880001068115234 11.722000122070312,2.2880001068115234" fill-opacity="1"></path><path id="l_d_7513" fill="#ffffff" clip-rule="nonzero" d=" M11.722000122070312,2.2880001068115234 C11.722000122070312,2.2880001068115234 -10.972000122070312,2.2880001068115234 -10.972000122070312,2.2880001068115234 C-10.972000122070312,2.2880001068115234 -10.972000122070312,6.083000183105469 -10.972000122070312,6.083000183105469 C-10.972000122070312,6.083000183105469 11.722000122070312,6.083000183105469 11.722000122070312,6.083000183105469 C11.722000122070312,6.083000183105469 11.722000122070312,2.2880001068115234 11.722000122070312,2.2880001068115234" fill-opacity="1"></path></clipPath></defs><g id="l_d_7459" clip-path="url(#__lottie_element_3156)"><g id="l_d_7536" transform="matrix(1.0000008344650269,0,0,1.0000008344650269,-24.00003433227539,-18.374406814575195)" opacity="1" style="display: block;"><g id="l_d_7540" opacity="1" transform="matrix(1,0,0,1,51,50)"><path id="l_d_7541" stroke-linecap="butt" stroke-linejoin="miter" fill-opacity="0" stroke-miterlimit="4" stroke="rgb(34,34,34)" stroke-opacity="1" stroke-width="2" d=" M-2,-2 C-2,-2 2,-2 2,-2 C2,-2 2,1 2,1 C2,1.5520000457763672 1.5520000457763672,2 1,2 C1,2 -1,2 -1,2 C-1.5520000457763672,2 -2,1.5520000457763672 -2,1 C-2,1 -2,-2 -2,-2 C-2,-2 -2,-2 -2,-2z"></path></g><g id="l_d_7542" opacity="1" transform="matrix(1,0,0,1,29,50)"><path id="l_d_7543" stroke-linecap="butt" stroke-linejoin="miter" fill-opacity="0" stroke-miterlimit="4" stroke="rgb(34,34,34)" stroke-opacity="1" stroke-width="2" d=" M-2,-2 C-2,-2 2,-2 2,-2 C2,-2 2,1 2,1 C2,1.5520000457763672 1.5520000457763672,2 1,2 C1,2 -1,2 -1,2 C-1.5520000457763672,2 -2,1.5520000457763672 -2,1 C-2,1 -2,-2 -2,-2 C-2,-2 -2,-2 -2,-2z"></path></g></g><g id="l_d_7518" transform="matrix(1.0000008344650269,0,0,1.0000008344650269,-24.00003433227539,-19.108909606933594)" opacity="1" style="display: block;"><g id="l_d_7522" opacity="1" transform="matrix(1,0,0,1,40,43)"><path id="l_d_7523" stroke-linecap="butt" stroke-linejoin="miter" fill-opacity="0" stroke-miterlimit="4" stroke="rgb(34,34,34)" stroke-opacity="1" stroke-width="2" d=" M-9,-5 C-9,-5 9,-5 9,-5 C11.208999633789062,-5 13,-3.2090001106262207 13,-1 C13,-1 13,4 13,4 C13,4.552000045776367 12.552000045776367,5 12,5 C12,5 -12,5 -12,5 C-12.552000045776367,5 -13,4.552000045776367 -13,4 C-13,4 -13,-1 -13,-1 C-13,-3.2090001106262207 -11.208999633789062,-5 -9,-5z"></path></g><g id="l_d_7524" opacity="1" transform="matrix(1,0,0,1,49,43)"><path id="l_d_7525" fill="rgb(34,34,34)" fill-opacity="1" d=" M0,-1 C0.5519999861717224,-1 1,-0.5519999861717224 1,0 C1,0.5519999861717224 0.5519999861717224,1 0,1 C-0.5519999861717224,1 -1,0.5519999861717224 -1,0 C-1,-0.5519999861717224 -0.5519999861717224,-1 0,-1z"></path></g><g id="l_d_7526" opacity="1" transform="matrix(1,0,0,1,31,43)"><path id="l_d_7527" fill="rgb(34,34,34)" fill-opacity="1" d=" M0,-1 C0.5519999861717224,-1 1,-0.5519999861717224 1,0 C1,0.5519999861717224 0.5519999861717224,1 0,1 C-0.5519999861717224,1 -1,0.5519999861717224 -1,0 C-1,-0.5519999861717224 -0.5519999861717224,-1 0,-1z"></path></g><g id="l_d_7528" opacity="1" transform="matrix(1,0,0,1,40,34)"><path id="l_d_7529" stroke-linecap="butt" stroke-linejoin="miter" fill-opacity="0" stroke-miterlimit="4" stroke="rgb(34,34,34)" stroke-opacity="1" stroke-width="2" d=" M-7.307000160217285,-4 C-7.307000160217285,-4 7.307000160217285,-4 7.307000160217285,-4 C7.723999977111816,-4 8.097000122070312,-3.740999937057495 8.243000030517578,-3.3510000705718994 C8.243000030517578,-3.3510000705718994 11,4 11,4 C11,4 11,4 11,4 C11,4 -11,4 -11,4 C-11,4 -8.243000030517578,-3.3510000705718994 -8.243000030517578,-3.3510000705718994 C-8.097000122070312,-3.740999937057495 -7.723999977111816,-4 -7.307000160217285,-4z"></path></g><g id="l_d_7530" opacity="1" transform="matrix(1,0,0,1,27.5,36)"><path id="l_d_7531" fill="rgb(34,34,34)" fill-opacity="1" d=" M-1.5,-1 C-1.5,-1 1.5,-1 1.5,-1 C1.5,-1 1.5,1 1.5,1 C1.5,1 -1.5,1 -1.5,1 C-1.5,1 -1.5,-1 -1.5,-1z"></path></g><g id="l_d_7532" opacity="1" transform="matrix(1,0,0,1,52.5,36)"><path id="l_d_7533" fill="rgb(34,34,34)" fill-opacity="1" d=" M-1.5,-1 C-1.5,-1 1.5,-1 1.5,-1 C1.5,-1 1.5,1 1.5,1 C1.5,1 -1.5,1 -1.5,1 C-1.5,1 -1.5,-1 -1.5,-1z"></path></g><g id="l_d_7534" opacity="1" transform="matrix(1,0,0,1,40,43)"><path id="l_d_7535" stroke-linecap="butt" stroke-linejoin="miter" fill-opacity="0" stroke-miterlimit="4" stroke="rgb(34,34,34)" stroke-opacity="1" stroke-width="2" d=" M-6,0 C-6,0 6,0 6,0"></path></g></g><g id="l_d_7510" clip-path="url(#__lottie_element_3176)" style="display: none;" transform="matrix(1,0,0,1,16,21.625)" opacity="1"><g id="l_d_7516" opacity="1" transform="matrix(1,0,0,1,0,0)"><path id="l_d_7517" fill="rgb(34,34,34)" fill-opacity="1" d=" M-0.847000002861023,8 C-0.847000002861023,8 -3.4170000553131104,20.75 -3.4170000553131104,20.75 C-3.4170000553131104,20.75 3.0829999446868896,20.75 3.0829999446868896,20.75 C3.0829999446868896,20.75 0.3190000057220459,8.083000183105469 0.3190000057220459,8.083000183105469"></path></g></g><g id="l_d_7502" clip-path="url(#__lottie_element_3173)" style="display: none;" transform="matrix(1,0,0,1,16,21.625)" opacity="1"><g id="l_d_7508" opacity="1" transform="matrix(1,0,0,1,0,0)"><path id="l_d_7509" fill="rgb(34,34,34)" fill-opacity="1" d=" M-0.847000002861023,8 C-0.847000002861023,8 -3.4170000553131104,20.75 -3.4170000553131104,20.75 C-3.4170000553131104,20.75 3.0829999446868896,20.75 3.0829999446868896,20.75 C3.0829999446868896,20.75 0.3190000057220459,8.083000183105469 0.3190000057220459,8.083000183105469"></path></g></g><g id="l_d_7494" clip-path="url(#__lottie_element_3170)" style="display: none;" transform="matrix(1,0,0,1,16,21.625)" opacity="1"><g id="l_d_7500" opacity="1" transform="matrix(1,0,0,1,0,0)"><path id="l_d_7501" fill="rgb(34,34,34)" fill-opacity="1" d=" M-0.847000002861023,8 C-0.847000002861023,8 -3.4170000553131104,20.75 -3.4170000553131104,20.75 C-3.4170000553131104,20.75 3.0829999446868896,20.75 3.0829999446868896,20.75 C3.0829999446868896,20.75 0.3190000057220459,8.083000183105469 0.3190000057220459,8.083000183105469"></path></g></g><g id="l_d_7486" clip-path="url(#__lottie_element_3167)" style="display: none;" transform="matrix(1,0,0,1,16,21.625)" opacity="1"><g id="l_d_7492" opacity="1" transform="matrix(1,0,0,1,0,0)"><path id="l_d_7493" fill="rgb(34,34,34)" fill-opacity="1" d=" M-0.847000002861023,8 C-0.847000002861023,8 -3.4170000553131104,20.75 -3.4170000553131104,20.75 C-3.4170000553131104,20.75 3.0829999446868896,20.75 3.0829999446868896,20.75 C3.0829999446868896,20.75 0.3190000057220459,8.083000183105469 0.3190000057220459,8.083000183105469"></path></g></g><g id="l_d_7478" clip-path="url(#__lottie_element_3164)" style="display: none;" transform="matrix(1,0,0,1,16,21.625)" opacity="1"><g id="l_d_7484" opacity="1" transform="matrix(1,0,0,1,0,0)"><path id="l_d_7485" fill="rgb(34,34,34)" fill-opacity="1" d=" M-0.847000002861023,8 C-0.847000002861023,8 -3.4170000553131104,20.75 -3.4170000553131104,20.75 C-3.4170000553131104,20.75 3.0829999446868896,20.75 3.0829999446868896,20.75 C3.0829999446868896,20.75 0.3190000057220459,8.083000183105469 0.3190000057220459,8.083000183105469"></path></g></g><g id="l_d_7470" clip-path="url(#__lottie_element_3161)" style="display: none;" transform="matrix(1,0,0,1,16,21.625)" opacity="1"><g id="l_d_7476" opacity="1" transform="matrix(1,0,0,1,0,0)"><path id="l_d_7477" fill="rgb(34,34,34)" fill-opacity="1" d=" M-0.847000002861023,8 C-0.847000002861023,8 -3.4170000553131104,20.75 -3.4170000553131104,20.75 C-3.4170000553131104,20.75 3.0829999446868896,20.75 3.0829999446868896,20.75 C3.0829999446868896,20.75 0.3190000057220459,8.083000183105469 0.3190000057220459,8.083000183105469"></path></g></g><g id="l_d_7462" clip-path="url(#__lottie_element_3158)" style="display: none;" transform="matrix(1,0,0,1,16,21.625)" opacity="1"><g id="l_d_7468" opacity="1" transform="matrix(1,0,0,1,0,0)"><path id="l_d_7469" fill="rgb(34,34,34)" fill-opacity="1" d=" M-0.847000002861023,8 C-0.847000002861023,8 -3.4170000553131104,20.75 -3.4170000553131104,20.75 C-3.4170000553131104,20.75 3.0829999446868896,20.75 3.0829999446868896,20.75 C3.0829999446868896,20.75 0.3190000057220459,8.083000183105469 0.3190000057220459,8.083000183105469"></path></g></g></g></svg>