<svg id="l_d_1736" xmlns="http://www.w3.org/2000/svg" xmlns:xlink="http://www.w3.org/1999/xlink" viewBox="0 0 45 45" width="45" height="45" preserveAspectRatio="xMidYMid meet" style="width: 100%; height: 100%; transform: translate3d(0px, 0px, 0px); content-visibility: visible;"><defs id="l_d_1737"><clipPath id="__lottie_element_719"><rect id="l_d_1740" width="45" height="45" x="0" y="0"></rect></clipPath><clipPath id="__lottie_element_722"><path id="l_d_1744" d="M0,0 L32,0 L32,32 L0,32z"></path></clipPath><g id="__lottie_element_727"><g id="l_d_1753" transform="matrix(1,0,0,1,16,16.61199951171875)" opacity="1" style="display: block;"><g id="l_d_1758" opacity="1" transform="matrix(1,0,0,1,0,0)"><path id="l_d_1759" fill="rgb(255,255,255)" fill-opacity="1" d=" M-2,-2.5 C-2,-2.5 2,-2.5 2,-2.5 C2,-2.5 2,2.5 2,2.5 C2,2.5 -2,2.5 -2,2.5 C-2,2.5 -2,-2.5 -2,-2.5z"></path></g></g></g><filter id="__lottie_element_733" filterUnits="objectBoundingBox" x="0%" y="0%" width="100%" height="100%"><feComponentTransfer id="l_d_1763" in="SourceGraphic"><feFuncA id="l_d_1764" type="table" tableValues="1.0 0.0"></feFuncA></feComponentTransfer></filter><mask id="__lottie_element_727_2" mask-type="alpha"><g id="l_d_1761" filter="url(#__lottie_element_733)"><rect id="l_d_1765" width="32" height="32" x="0" y="0" fill="#ffffff" opacity="0"></rect><use id="l_d_1766" xlink:href="#__lottie_element_727"></use></g></mask></defs><g id="l_d_1738" clip-path="url(#__lottie_element_719)"><g id="l_d_1741" clip-path="url(#__lottie_element_722)" transform="matrix(1,0,0,1,0,6.5)" opacity="1" style="display: block;"><g id="l_d_1748" mask="url(#__lottie_element_727_2)" style="display: block;"><g id="l_d_1747" transform="matrix(1,0,0,1,16,16)" opacity="1"><g id="l_d_1751" opacity="1" transform="matrix(1,0,0,1,0,0)"><path id="l_d_1752" stroke-linecap="butt" stroke-linejoin="miter" fill-opacity="0" stroke-miterlimit="4" stroke="rgb(0,0,0)" stroke-opacity="1" stroke-width="2" d=" M-12,13 C-12,6.373000144958496 -6.626999855041504,1 0,1 C6.626999855041504,1 12,6.373000144958496 12,13 M0,-11 C3.313999891281128,-11 6,-8.314000129699707 6,-5 C6,-1.6859999895095825 3.313999891281128,1 0,1 C-3.313999891281128,1 -6,-1.6859999895095825 -6,-5 C-6,-8.314000129699707 -3.313999891281128,-11 0,-11z"></path></g></g></g></g></g></svg>