<svg id="l_d_1846" xmlns="http://www.w3.org/2000/svg" xmlns:xlink="http://www.w3.org/1999/xlink" viewBox="0 0 45 45" width="45" height="45" preserveAspectRatio="xMidYMid meet" style="width: 100%; height: 100%; transform: translate3d(0px, 0px, 0px); content-visibility: visible;"><defs id="l_d_1847"><clipPath id="__lottie_element_768"><rect id="l_d_1850" width="45" height="45" x="0" y="0"></rect></clipPath><clipPath id="__lottie_element_771"><path id="l_d_1854" d="M0,0 L32,0 L32,32 L0,32z"></path></clipPath><g id="__lottie_element_782"><g id="l_d_1869" clip-path="url(#__lottie_element_783)" transform="matrix(1,0,0,1,0,0)" opacity="1" style="display: block;"><g id="l_d_1882" transform="matrix(1,0,0,1,8,21.5)" opacity="1" style="display: block;"><g id="l_d_1886" opacity="1" transform="matrix(1,0,0,1,0,0)"><path id="l_d_1887" fill="rgb(0,0,0)" fill-opacity="1" d=" M-5,6.5 C-5,4.085999965667725 -3.2790000438690186,2.065999984741211 -1,1.6009999513626099 C-1,1.6009999513626099 -1,-0.6840000152587891 -1,-0.6840000152587891 C-2.1610000133514404,-1.0980000495910645 -3,-2.197999954223633 -3,-3.5 C-3,-5.1539998054504395 -1.6540000438690186,-6.5 0,-6.5 C1.6540000438690186,-6.5 3,-5.1539998054504395 3,-3.5 C3,-2.197999954223633 2.1610000133514404,-1.0980000495910645 1,-0.6840000152587891 C1,-0.6840000152587891 1,1.6009999513626099 1,1.6009999513626099 C3.2790000438690186,2.065999984741211 5,4.085999965667725 5,6.5 C5,6.5 -5,6.5 -5,6.5z"></path></g></g><g id="l_d_1876" transform="matrix(1,0,0,1,24,21.5)" opacity="1" style="display: block;"><g id="l_d_1880" opacity="1" transform="matrix(1,0,0,1,0,0)"><path id="l_d_1881" fill="rgb(0,0,0)" fill-opacity="1" d=" M-5,6.5 C-5,4.085999965667725 -3.2790000438690186,2.065999984741211 -1,1.6009999513626099 C-1,1.6009999513626099 -1,-0.6840000152587891 -1,-0.6840000152587891 C-2.1610000133514404,-1.0980000495910645 -3,-2.197999954223633 -3,-3.5 C-3,-5.1539998054504395 -1.6540000438690186,-6.5 0,-6.5 C1.6540000438690186,-6.5 3,-5.1539998054504395 3,-3.5 C3,-2.197999954223633 2.1610000133514404,-1.0980000495910645 1,-0.6840000152587891 C1,-0.6840000152587891 1,1.6009999513626099 1,1.6009999513626099 C3.2790000438690186,2.065999984741211 5,4.085999965667725 5,6.5 C5,6.5 -5,6.5 -5,6.5z"></path></g></g></g></g><clipPath id="__lottie_element_783"><path id="l_d_1873" d="M0,0 L32,0 L32,32 L0,32z"></path></clipPath><filter id="__lottie_element_795" filterUnits="objectBoundingBox" x="0%" y="0%" width="100%" height="100%"><feComponentTransfer id="l_d_1897" in="SourceGraphic"><feFuncA id="l_d_1898" type="table" tableValues="1.0 0.0"></feFuncA></feComponentTransfer></filter><mask id="__lottie_element_782_2" mask-type="alpha"><g id="l_d_1895" filter="url(#__lottie_element_795)"><rect id="l_d_1899" width="32" height="32" x="0" y="0" fill="#ffffff" opacity="0"></rect><use id="l_d_1900" xlink:href="#__lottie_element_782"></use></g></mask></defs><g id="l_d_1848" clip-path="url(#__lottie_element_768)"><g id="l_d_1851" clip-path="url(#__lottie_element_771)" transform="matrix(1,0,0,1,0,6.5)" opacity="1" style="display: block;"><g id="l_d_1889" mask="url(#__lottie_element_782_2)" style="display: block;"><g id="l_d_1888" transform="matrix(1,0,0,1,16,11.5)" opacity="1"><g id="l_d_1892" opacity="1" transform="matrix(1,0,0,1,0,0)"><path id="l_d_1893" fill="rgb(0,0,0)" fill-opacity="1" d=" M3.625999927520752,1.2690000534057617 C5.065000057220459,0.1720000058412552 6,-1.5549999475479126 6,-3.5 C6,-6.809000015258789 3.309000015258789,-9.5 0,-9.5 C-3.309000015258789,-9.5 -6,-6.809000015258789 -6,-3.5 C-6,-1.5549999475479126 -5.065000057220459,0.1720000058412552 -3.625999927520752,1.2690000534057617 C-6.785999774932861,2.6670000553131104 -9,5.828000068664551 -9,9.5 C-9,9.5 -7,9.5 -7,9.5 C-7,5.980999946594238 -4.38700008392334,3.068000078201294 -1,2.5799999237060547 C-1,2.5799999237060547 -1,0.3580000102519989 -1,0.3580000102519989 C-2.7200000286102295,-0.08900000154972076 -4,-1.6419999599456787 -4,-3.5 C-4,-5.705999851226807 -2.2060000896453857,-7.5 0,-7.5 C2.2060000896453857,-7.5 4,-5.705999851226807 4,-3.5 C4,-1.6419999599456787 2.7209999561309814,-0.08900000154972076 1,0.3580000102519989 C1,0.3580000102519989 1,2.5799999237060547 1,2.5799999237060547 C4.386000156402588,3.068000078201294 7,5.980999946594238 7,9.5 C7,9.5 9,9.5 9,9.5 C9,5.828000068664551 6.7870001792907715,2.6670000553131104 3.625999927520752,1.2690000534057617z"></path></g></g></g><g id="l_d_1863" transform="matrix(1,0,0,1,8,20.5)" opacity="1" style="display: block;"><g id="l_d_1867" opacity="1" transform="matrix(1,0,0,1,0,0)"><path id="l_d_1868" fill="rgb(0,0,0)" fill-opacity="1" d=" M3.2209999561309814,1.2920000553131104 C4.300000190734863,0.37400001287460327 5,-0.9760000109672546 5,-2.5 C5,-5.256999969482422 2.756999969482422,-7.5 0,-7.5 C-2.756999969482422,-7.5 -5,-5.256999969482422 -5,-2.5 C-5,-0.9760000109672546 -4.300000190734863,0.37400001287460327 -3.2209999561309814,1.2920000553131104 C-5.4629998207092285,2.4600000381469727 -7,4.802000045776367 -7,7.5 C-7,7.5 -5,7.5 -5,7.5 C-5,5.085999965667725 -3.2790000438690186,3.065999984741211 -1,2.6010000705718994 C-1,2.6010000705718994 -1,0.3160000145435333 -1,0.3160000145435333 C-2.1610000133514404,-0.09799999743700027 -3,-1.1979999542236328 -3,-2.5 C-3,-4.1539998054504395 -1.6540000438690186,-5.5 0,-5.5 C1.6540000438690186,-5.5 3,-4.1539998054504395 3,-2.5 C3,-1.1979999542236328 2.1610000133514404,-0.09799999743700027 1,0.3160000145435333 C1,0.3160000145435333 1,2.6010000705718994 1,2.6010000705718994 C3.2790000438690186,3.065999984741211 5,5.085999965667725 5,7.5 C5,7.5 7,7.5 7,7.5 C7,4.802000045776367 5.4629998207092285,2.4600000381469727 3.2209999561309814,1.2920000553131104z"></path></g></g><g id="l_d_1857" transform="matrix(1,0,0,1,24,20.5)" opacity="1" style="display: block;"><g id="l_d_1861" opacity="1" transform="matrix(1,0,0,1,0,0)"><path id="l_d_1862" fill="rgb(0,0,0)" fill-opacity="1" d=" M3.2209999561309814,1.2920000553131104 C4.300000190734863,0.37400001287460327 5,-0.9760000109672546 5,-2.5 C5,-5.256999969482422 2.756999969482422,-7.5 0,-7.5 C-2.756999969482422,-7.5 -5,-5.256999969482422 -5,-2.5 C-5,-0.9760000109672546 -4.300000190734863,0.37400001287460327 -3.2209999561309814,1.2920000553131104 C-5.4629998207092285,2.4600000381469727 -7,4.802000045776367 -7,7.5 C-7,7.5 -5,7.5 -5,7.5 C-5,5.085999965667725 -3.2790000438690186,3.065999984741211 -1,2.6010000705718994 C-1,2.6010000705718994 -1,0.3160000145435333 -1,0.3160000145435333 C-2.1610000133514404,-0.09799999743700027 -3,-1.1979999542236328 -3,-2.5 C-3,-4.1539998054504395 -1.6540000438690186,-5.5 0,-5.5 C1.6540000438690186,-5.5 3,-4.1539998054504395 3,-2.5 C3,-1.1979999542236328 2.1610000133514404,-0.09799999743700027 1,0.3160000145435333 C1,0.3160000145435333 1,2.6010000705718994 1,2.6010000705718994 C3.2790000438690186,3.065999984741211 5,5.085999965667725 5,7.5 C5,7.5 7,7.5 7,7.5 C7,4.802000045776367 5.4629998207092285,2.4600000381469727 3.2209999561309814,1.2920000553131104z"></path></g></g></g></g></svg>