<svg id="l_d_7545" xmlns="http://www.w3.org/2000/svg" xmlns:xlink="http://www.w3.org/1999/xlink" viewBox="0 0 45 45" width="45" height="45" preserveAspectRatio="xMidYMid meet" style="width: 100%; height: 100%; transform: translate3d(0px, 0px, 0px); content-visibility: visible;"><defs id="l_d_7546"><clipPath id="__lottie_element_3187"><rect id="l_d_7549" width="45" height="45" x="0" y="0"></rect></clipPath><g id="__lottie_element_3188"><g id="l_d_7550" transform="matrix(1,0,0,1,-24.875,-16.75)" opacity="1" style="display: none;"><g id="l_d_7555" opacity="1" transform="matrix(1,0,0,1,40,38)"><path id="l_d_7556" stroke-linecap="butt" stroke-linejoin="miter" fill-opacity="0" stroke-miterlimit="4" stroke="rgb(34,34,34)" stroke-opacity="1" stroke-width="2" d=" M0,-13 C6.626999855041504,-13 12,-7.138000011444092 12,-1.2760000228881836 C13.241999626159668,-24.229000091552734 7.079999923706055,-34.11000061035156 7.079999923706055,-34.11000061035156 C7.079999923706055,-34.11000061035156 -7.150000095367432,-34.11000061035156 -7.150000095367432,-34.11000061035156 C-7.150000095367432,-34.11000061035156 -15.02400016784668,-26.775999069213867 -12,-1.2760000228881836 C-12,-7.750999927520752 -6.626999855041504,-13 0,-13z"></path><path id="l_d_7557" fill="rgb(0,0,0)" fill-opacity="1" d=" M0,-13 C6.626999855041504,-13 12,-7.138000011444092 12,-1.2760000228881836 C13.241999626159668,-24.229000091552734 7.079999923706055,-34.11000061035156 7.079999923706055,-34.11000061035156 C7.079999923706055,-34.11000061035156 -7.150000095367432,-34.11000061035156 -7.150000095367432,-34.11000061035156 C-7.150000095367432,-34.11000061035156 -15.02400016784668,-26.775999069213867 -12,-1.2760000228881836 C-12,-7.750999927520752 -6.626999855041504,-13 0,-13z"></path></g></g></g><mask id="__lottie_element_3188_1" mask-type="alpha"><use id="l_d_7565" xlink:href="#__lottie_element_3188"></use></mask></defs><g id="l_d_7547" clip-path="url(#__lottie_element_3187)"><g id="l_d_7566" transform="matrix(1,0,0,1,-24.875,-16.75)" opacity="1" style="display: block;"><g id="l_d_7570" opacity="1" transform="matrix(1,0,0,1,40,40)"></g><g id="l_d_7571" opacity="1" transform="matrix(1,0,0,1,40,38)"><path id="l_d_7572" stroke-linecap="butt" stroke-linejoin="miter" fill-opacity="0" stroke-miterlimit="4" stroke="rgb(34,34,34)" stroke-opacity="1" stroke-width="2" d=" M0,-13 C6.626999855041504,-13 12,-7.138000011444092 12,-1.2760000228881836 C12,3.5199999809265137 10.371999740600586,8.279000282287598 7.114999771118164,13 C7.114999771118164,13 -7.114999771118164,13 -7.114999771118164,13 C-10.371999740600586,8.279000282287598 -12,3.5199999809265137 -12,-1.2760000228881836 C-12,-7.750999927520752 -6.626999855041504,-13 0,-13z"></path></g><g id="l_d_7573" opacity="1" transform="matrix(1,0,0,1,40,44)"><path id="l_d_7574" stroke-linecap="butt" stroke-linejoin="miter" fill-opacity="0" stroke-miterlimit="4" stroke="rgb(34,34,34)" stroke-opacity="1" stroke-width="2" d=" M0,-2.375 C1.312000036239624,-2.375 2.375,-1.312000036239624 2.375,0 C2.375,1.312000036239624 1.312000036239624,2.375 0,2.375 C-1.312000036239624,2.375 -2.375,1.312000036239624 -2.375,0 C-2.375,-1.312000036239624 -1.312000036239624,-2.375 0,-2.375z"></path></g><g id="l_d_7575" opacity="1" transform="matrix(1,0,0,1,40,33)"><path id="l_d_7576" stroke-linecap="butt" stroke-linejoin="miter" fill-opacity="0" stroke-miterlimit="4" stroke="rgb(34,34,34)" stroke-opacity="1" stroke-width="2" d=" M8,4 C8,-0.4180000126361847 4.418000221252441,-4 0,-4 C-4.418000221252441,-4 -8,-0.4180000126361847 -8,4 C2.6670000553131104,4 8,4 8,4z"></path></g><g id="l_d_7577" opacity="1" transform="matrix(1,0,0,1,41.5,35)"><path id="l_d_7578" stroke-linecap="butt" stroke-linejoin="round" fill-opacity="0" stroke="rgb(34,34,34)" stroke-opacity="1" stroke-width="2" d=" M-1.5,2 C-1.5,2 1.5,-2 1.5,-2"></path></g><g id="l_d_7579" opacity="1" transform="matrix(1,0,0,1,40,54)"><path id="l_d_7580" stroke-linecap="butt" stroke-linejoin="miter" fill-opacity="0" stroke-miterlimit="4" stroke="rgb(34,34,34)" stroke-opacity="1" stroke-width="2" d=" M0,-2 C0,-2 0,2 0,2"></path></g></g><g id="l_d_7559" mask="url(#__lottie_element_3188_1)" style="display: none;"><g id="l_d_7558" transform="matrix(0.7400000095367432,0,0,0.7400000095367432,15.125,13.625)" opacity="1"><g id="l_d_7562" opacity="1" transform="matrix(1,0,0,1,0,0)"><path id="l_d_7563" stroke-linecap="butt" stroke-linejoin="miter" fill-opacity="0" stroke-miterlimit="4" stroke="rgb(34,34,34)" stroke-opacity="1" stroke-width="2" d=" M0,-2.4565000534057617 C1.355742335319519,-2.4565000534057617 2.4565000534057617,-1.355742335319519 2.4565000534057617,0 C2.4565000534057617,1.355742335319519 1.355742335319519,2.4565000534057617 0,2.4565000534057617 C-1.355742335319519,2.4565000534057617 -2.4565000534057617,1.355742335319519 -2.4565000534057617,0 C-2.4565000534057617,-1.355742335319519 -1.355742335319519,-2.4565000534057617 0,-2.4565000534057617z"></path></g></g></g></g></svg>