<svg xmlns="http://www.w3.org/2000/svg" viewBox="0 0 32 32" aria-hidden="true" role="presentation" focusable="false" style="display: block; height: 24px; width: 24px; fill: currentcolor;"><path d="M28,2H22V0H20V2H12V0H10V2H4A2.002,2.002,0,0,0,2,4V25a5.00588,5.00588,0,0,0,5,5H19.58594A2.0144,2.0144,0,0,0,21,29.41406L29.41406,21A2.0144,2.0144,0,0,0,30,19.58594V4A2.00229,2.00229,0,0,0,28,2ZM20,27.58594V23a3.00328,3.00328,0,0,1,3-3h4.58594ZM28,10H4v2H28v6H23a5.00588,5.00588,0,0,0-5,5v5H7a3.00328,3.00328,0,0,1-3-3L3.99854,4H10V6h2V4h8V6h2V4h6Z"></path></svg>