<svg xmlns="http://www.w3.org/2000/svg" viewBox="0 0 32 32" aria-hidden="true" role="presentation" focusable="false" style="display: block; height: 24px; width: 24px; fill: currentcolor;"><path d="M31.707,15.293,29,12.58594,18.12109,1.707a3.07251,3.07251,0,0,0-4.24218,0L3,12.58594.293,15.293,1.707,16.707,3,15.41406V28a2.00229,2.00229,0,0,0,2,2H27a2.0026,2.0026,0,0,0,2-2V15.41406l1.293,1.293ZM27,28H5V13.41406l10.293-10.293a1.00142,1.00142,0,0,1,1.41406,0L27,13.41406ZM17,12v5h5v2H17v5H15V19H10V17h5V12Z"></path></svg>