<svg xmlns="http://www.w3.org/2000/svg" viewBox="0 0 32 32" aria-hidden="true" role="presentation" focusable="false" style="display: block; height: 24px; width: 24px; fill: currentcolor;"><path d="M16.00049,31.0791,11.84326,26H6a5.00588,5.00588,0,0,1-5-5V7A5.00588,5.00588,0,0,1,6,2H26a5.00588,5.00588,0,0,1,5,5V21a5.00588,5.00588,0,0,1-5,5H20.1543ZM6,4A3.00328,3.00328,0,0,0,3,7V21a3.00328,3.00328,0,0,0,3,3h6.79053l3.209,3.9209L19.207,24H26a3.00328,3.00328,0,0,0,3-3V7a3.00328,3.00328,0,0,0-3-3Z"></path></svg>