<svg id="l_d_7360" xmlns="http://www.w3.org/2000/svg" xmlns:xlink="http://www.w3.org/1999/xlink" viewBox="0 0 45 45" width="45" height="45" preserveAspectRatio="xMidYMid meet" style="width: 100%; height: 100%; transform: translate3d(0px, 0px, 0px); content-visibility: visible;"><defs id="l_d_7361"><clipPath id="__lottie_element_3129"><rect id="l_d_7364" width="45" height="45" x="0" y="0"></rect></clipPath><g id="__lottie_element_3140"><g id="l_d_7398" style="display: none;" transform="matrix(1,0,0,1,-23.5,-17.5)" opacity="1"><g id="l_d_7403" opacity="1" transform="matrix(1,0,0,1,40,40)"><path id="l_d_7404" fill="rgb(255,0,0)" fill-opacity="1" d=" M-12.005813598632812,-5.00705099105835 C-12.005813598632812,-5.00705099105835 12.005794525146484,-5.00705099105835 12.005794525146484,-5.00705099105835 C12.557794570922852,-5.00705099105835 13.005794525146484,-4.5596208572387695 13.005794525146484,-4.008285999298096 C13.005794525146484,-4.008285999298096 12.999582290649414,11.68281364440918 12.999582290649414,11.68281364440918 C12.999582290649414,12.234148979187012 12.551582336425781,12.681578636169434 11.999582290649414,12.681578636169434 C11.999582290649414,12.681578636169434 -12.000417709350586,12.681578636169434 -12.000417709350586,12.681578636169434 C-12.552417755126953,12.681578636169434 -13.000417709350586,12.234148979187012 -13.000417709350586,11.68281364440918 C-13.000417709350586,11.68281364440918 -13.005813598632812,-4.008285999298096 -13.005813598632812,-4.008285999298096 C-13.005813598632812,-4.5596208572387695 -12.55781364440918,-5.00705099105835 -12.005813598632812,-5.00705099105835z"></path></g></g></g><mask id="__lottie_element_3140_1" mask-type="alpha"><use id="l_d_7412" xlink:href="#__lottie_element_3140"></use></mask><g id="__lottie_element_3146"><g id="l_d_7413" style="display: none;" transform="matrix(1,0,0,1,-23.5,-17.5)" opacity="1"><g id="l_d_7418" opacity="1" transform="matrix(1,0,0,1,40,40)"><path id="l_d_7419" fill="rgb(255,0,0)" fill-opacity="1" d=" M-12.156502723693848,-4.981420040130615 C-12.156502723693848,-4.981420040130615 12.123480796813965,-4.980260848999023 12.123480796813965,-4.980260848999023 C12.675480842590332,-4.980260848999023 13.123480796813965,-4.532831192016602 13.123480796813965,-3.9814960956573486 C13.123480796813965,-3.9814960956573486 13.130207061767578,11.413089752197266 13.130207061767578,11.413089752197266 C13.130207061767578,11.964425086975098 12.682207107543945,12.41185474395752 12.130207061767578,12.41185474395752 C12.130207061767578,12.41185474395752 -12.214167594909668,12.41185474395752 -12.214167594909668,12.41185474395752 C-12.766167640686035,12.41185474395752 -13.214167594909668,11.964425086975098 -13.214167594909668,11.413089752197266 C-13.214167594909668,11.413089752197266 -13.156502723693848,-3.982635974884033 -13.156502723693848,-3.982635974884033 C-13.156502723693848,-4.533970832824707 -12.708502769470215,-4.981420040130615 -12.156502723693848,-4.981420040130615z"></path></g></g></g><mask id="__lottie_element_3146_1" mask-type="alpha"><use id="l_d_7438" xlink:href="#__lottie_element_3146"></use></mask></defs><g id="l_d_7362" clip-path="url(#__lottie_element_3129)"><g id="l_d_7439" transform="matrix(0.9999498724937439,0,0,0.9999498724937439,-23.497997283935547,-17.497997283935547)" opacity="1" style="display: none;"><g id="l_d_7443" opacity="1" transform="matrix(1,0,0,1,40,40)"></g><g id="l_d_7444" opacity="1" transform="matrix(1,0,0,1,40,40)"><path id="l_d_7445" stroke-linecap="butt" stroke-linejoin="miter" fill-opacity="0" stroke-miterlimit="4" stroke="rgb(34,34,34)" stroke-opacity="1" stroke-width="2" d=" M-12,-13 C-12,-13 12,-13 12,-13 C12.552000045776367,-13 13,-12.552000045776367 13,-12 C13,-12 13,12 13,12 C13,12.552000045776367 12.552000045776367,13 12,13 C12,13 -12,13 -12,13 C-12.552000045776367,13 -13,12.552000045776367 -13,12 C-13,12 -13,-12 -13,-12 C-13,-12.552000045776367 -12.552000045776367,-13 -12,-13z"></path></g><g id="l_d_7446" opacity="1" transform="matrix(1,0,0,1,40,35)"><path id="l_d_7447" stroke-linecap="butt" stroke-linejoin="miter" fill-opacity="0" stroke-miterlimit="4" stroke="rgb(34,34,34)" stroke-opacity="1" stroke-width="2" d=" M13,0 C13,0 -13,0 -13,0"></path></g><g id="l_d_7448" opacity="1" transform="matrix(1,0,0,1,49,31)"><path id="l_d_7449" fill="rgb(0,0,0)" fill-opacity="1" d=" M0,-1 C0.5519999861717224,-1 1,-0.5519999861717224 1,0 C1,0.5519999861717224 0.5519999861717224,1 0,1 C-0.5519999861717224,1 -1,0.5519999861717224 -1,0 C-1,-0.5519999861717224 -0.5519999861717224,-1 0,-1z"></path></g><g id="l_d_7450" opacity="1" transform="matrix(1,0,0,1,43,31)"><path id="l_d_7451" fill="rgb(0,0,0)" fill-opacity="1" d=" M0,-1 C0.5519999861717224,-1 1,-0.5519999861717224 1,0 C1,0.5519999861717224 0.5519999861717224,1 0,1 C-0.5519999861717224,1 -1,0.5519999861717224 -1,0 C-1,-0.5519999861717224 -0.5519999861717224,-1 0,-1z"></path></g><g id="l_d_7452" opacity="1" transform="matrix(1,0,0,1,37,31)"><path id="l_d_7453" fill="rgb(0,0,0)" fill-opacity="1" d=" M0,-1 C0.5519999861717224,-1 1,-0.5519999861717224 1,0 C1,0.5519999861717224 0.5519999861717224,1 0,1 C-0.5519999861717224,1 -1,0.5519999861717224 -1,0 C-1,-0.5519999861717224 -0.5519999861717224,-1 0,-1z"></path></g><g id="l_d_7454" opacity="1" transform="matrix(1,0,0,1,31,31)"><path id="l_d_7455" fill="rgb(0,0,0)" fill-opacity="1" d=" M0,-1 C0.5519999861717224,-1 1,-0.5519999861717224 1,0 C1,0.5519999861717224 0.5519999861717224,1 0,1 C-0.5519999861717224,1 -1,0.5519999861717224 -1,0 C-1,-0.5519999861717224 -0.5519999861717224,-1 0,-1z"></path></g></g><g id="l_d_7421" mask="url(#__lottie_element_3146_1)" style="display: none;"><g id="l_d_7420" transform="matrix(1,0,0,1,-23.5,-17.5)" opacity="1"><g id="l_d_7424" opacity="1" transform="matrix(1,0,0,1,40,40)"></g><g id="l_d_7425" opacity="1" transform="matrix(1,0,0,1,40,40)"><path id="l_d_7426" stroke-linecap="butt" stroke-linejoin="miter" fill-opacity="0" stroke-miterlimit="4" stroke="rgb(34,34,34)" stroke-opacity="1" stroke-width="2" d=" M-12,-13 C-12,-13 12,-13 12,-13 C12.552000045776367,-13 13,-12.552000045776367 13,-12 C13,-12 13,12 13,12 C13,12.552000045776367 12.552000045776367,13 12,13 C12,13 -12,13 -12,13 C-12.552000045776367,13 -13,12.552000045776367 -13,12 C-13,12 -13,-12 -13,-12 C-13,-12.552000045776367 -12.552000045776367,-13 -12,-13z"></path></g><g id="l_d_7427" opacity="1" transform="matrix(1,0,0,1,40,35)"><path id="l_d_7428" stroke-linecap="butt" stroke-linejoin="miter" fill-opacity="0" stroke-miterlimit="4" stroke="rgb(34,34,34)" stroke-opacity="1" stroke-width="2" d=" M13,0 C13,0 -13,0 -13,0"></path></g><g id="l_d_7429" opacity="1" transform="matrix(1,0,0,1,49,31)"><path id="l_d_7430" fill="rgb(0,0,0)" fill-opacity="1" d=" M0,-1 C0.5519999861717224,-1 1,-0.5519999861717224 1,0 C1,0.5519999861717224 0.5519999861717224,1 0,1 C-0.5519999861717224,1 -1,0.5519999861717224 -1,0 C-1,-0.5519999861717224 -0.5519999861717224,-1 0,-1z"></path></g><g id="l_d_7431" opacity="1" transform="matrix(1,0,0,1,43,31)"><path id="l_d_7432" fill="rgb(0,0,0)" fill-opacity="1" d=" M0,-1 C0.5519999861717224,-1 1,-0.5519999861717224 1,0 C1,0.5519999861717224 0.5519999861717224,1 0,1 C-0.5519999861717224,1 -1,0.5519999861717224 -1,0 C-1,-0.5519999861717224 -0.5519999861717224,-1 0,-1z"></path></g><g id="l_d_7433" opacity="1" transform="matrix(1,0,0,1,37,31)"><path id="l_d_7434" fill="rgb(0,0,0)" fill-opacity="1" d=" M0,-1 C0.5519999861717224,-1 1,-0.5519999861717224 1,0 C1,0.5519999861717224 0.5519999861717224,1 0,1 C-0.5519999861717224,1 -1,0.5519999861717224 -1,0 C-1,-0.5519999861717224 -0.5519999861717224,-1 0,-1z"></path></g><g id="l_d_7435" opacity="1" transform="matrix(1,0,0,1,31,31)"><path id="l_d_7436" fill="rgb(0,0,0)" fill-opacity="1" d=" M0,-1 C0.5519999861717224,-1 1,-0.5519999861717224 1,0 C1,0.5519999861717224 0.5519999861717224,1 0,1 C-0.5519999861717224,1 -1,0.5519999861717224 -1,0 C-1,-0.5519999861717224 -0.5519999861717224,-1 0,-1z"></path></g></g></g><g id="l_d_7406" mask="url(#__lottie_element_3140_1)" style="display: none;"><g id="l_d_7405" transform="matrix(1,0,0,1,-23.5,-15.999000549316406)" opacity="1"><g id="l_d_7409" opacity="1" transform="matrix(1,0,0,1,33.5,43.5)"><path id="l_d_7410" stroke-linecap="butt" stroke-linejoin="round" fill-opacity="0" stroke="rgb(34,34,34)" stroke-opacity="1" stroke-width="2" d=" M1.4390000104904175,-5.216000080108643 C1.4390000104904175,-5.216000080108643 11.713000297546387,-5.216000080108643 11.713000297546387,-5.216000080108643 C14.218000411987305,-5.216000080108643 16.30500030517578,-3.2950000762939453 16.51300048828125,-0.7990000247955322 C16.51300048828125,-0.7990000247955322 16.614999771118164,0.42800000309944153 16.614999771118164,0.42800000309944153 C16.75,2.0480000972747803 15.545000076293945,3.4719998836517334 13.925000190734863,3.6070001125335693 C13.843999862670898,3.614000082015991 13.762999534606934,3.617000102996826 13.680999755859375,3.617000102996826 C13.680999755859375,3.617000102996826 -0.5289999842643738,3.617000102996826 -0.5289999842643738,3.617000102996826 C-2.1549999713897705,3.617000102996826 -3.4730000495910645,2.2990000247955322 -3.4730000495910645,0.6729999780654907 C-3.4730000495910645,0.5910000205039978 -3.4700000286102295,0.5090000033378601 -3.4630000591278076,0.42800000309944153 C-3.4630000591278076,0.42800000309944153 -3.3610000610351562,-0.7990000247955322 -3.3610000610351562,-0.7990000247955322 C-3.1530001163482666,-3.2950000762939453 -1.065999984741211,-5.216000080108643 1.4390000104904175,-5.216000080108643z M5.104000091552734,-5.216000080108643 C5.104000091552734,-5.216000080108643 7.311999797821045,-1.534999966621399 7.311999797821045,-1.534999966621399 M9.520000457763672,-5.216000080108643 C9.520000457763672,-5.216000080108643 11.727999687194824,-1.534999966621399 11.727999687194824,-1.534999966621399 M0.6880000233650208,-5.216000080108643 C0.6880000233650208,-5.216000080108643 2.8959999084472656,-1.534999966621399 2.8959999084472656,-1.534999966621399"></path></g></g></g><g id="l_d_7381" transform="matrix(1,0,0,1,-23.5,-17.5)" opacity="1" style="display: block;"><g id="l_d_7385" opacity="1" transform="matrix(1,0,0,1,40,40)"></g><g id="l_d_7386" opacity="1" transform="matrix(1,0,0,1,40,40)"><path id="l_d_7387" stroke-linecap="butt" stroke-linejoin="miter" fill-opacity="0" stroke-miterlimit="4" stroke="rgb(34,34,34)" stroke-opacity="1" stroke-width="2" d=" M-12,-13 C-12,-13 12,-13 12,-13 C12.552000045776367,-13 13,-12.552000045776367 13,-12 C13,-12 13,12 13,12 C13,12.552000045776367 12.552000045776367,13 12,13 C12,13 -12,13 -12,13 C-12.552000045776367,13 -13,12.552000045776367 -13,12 C-13,12 -13,-12 -13,-12 C-13,-12.552000045776367 -12.552000045776367,-13 -12,-13z"></path></g><g id="l_d_7388" opacity="1" transform="matrix(1,0,0,1,40,35)"><path id="l_d_7389" stroke-linecap="butt" stroke-linejoin="miter" fill-opacity="0" stroke-miterlimit="4" stroke="rgb(34,34,34)" stroke-opacity="1" stroke-width="2" d=" M13,0 C13,0 -13,0 -13,0"></path></g><g id="l_d_7390" opacity="1" transform="matrix(1,0,0,1,49,31)"><path id="l_d_7391" fill="rgb(0,0,0)" fill-opacity="1" d=" M0,-1 C0.5519999861717224,-1 1,-0.5519999861717224 1,0 C1,0.5519999861717224 0.5519999861717224,1 0,1 C-0.5519999861717224,1 -1,0.5519999861717224 -1,0 C-1,-0.5519999861717224 -0.5519999861717224,-1 0,-1z"></path></g><g id="l_d_7392" opacity="1" transform="matrix(1,0,0,1,43,31)"><path id="l_d_7393" fill="rgb(0,0,0)" fill-opacity="1" d=" M0,-1 C0.5519999861717224,-1 1,-0.5519999861717224 1,0 C1,0.5519999861717224 0.5519999861717224,1 0,1 C-0.5519999861717224,1 -1,0.5519999861717224 -1,0 C-1,-0.5519999861717224 -0.5519999861717224,-1 0,-1z"></path></g><g id="l_d_7394" opacity="1" transform="matrix(1,0,0,1,37,31)"><path id="l_d_7395" fill="rgb(0,0,0)" fill-opacity="1" d=" M0,-1 C0.5519999861717224,-1 1,-0.5519999861717224 1,0 C1,0.5519999861717224 0.5519999861717224,1 0,1 C-0.5519999861717224,1 -1,0.5519999861717224 -1,0 C-1,-0.5519999861717224 -0.5519999861717224,-1 0,-1z"></path></g><g id="l_d_7396" opacity="1" transform="matrix(1,0,0,1,31,31)"><path id="l_d_7397" fill="rgb(0,0,0)" fill-opacity="1" d=" M0,-1 C0.5519999861717224,-1 1,-0.5519999861717224 1,0 C1,0.5519999861717224 0.5519999861717224,1 0,1 C-0.5519999861717224,1 -1,0.5519999861717224 -1,0 C-1,-0.5519999861717224 -0.5519999861717224,-1 0,-1z"></path></g></g><g id="l_d_7373" transform="matrix(1,0,0,1,-23.5,-17.5)" opacity="1" style="display: block;"><g id="l_d_7377" opacity="1" transform="matrix(1,0,0,1,40,44)"><path id="l_d_7378" stroke-linecap="butt" stroke-linejoin="miter" fill-opacity="0" stroke-miterlimit="4" stroke="rgb(34,34,34)" stroke-opacity="1" stroke-width="2" d="M0 0"></path></g><g id="l_d_7379" opacity="1" transform="matrix(1,0,0,1,40,40)"><path id="l_d_7380" stroke-linecap="butt" stroke-linejoin="miter" fill-opacity="0" stroke-miterlimit="4" stroke="rgb(34,34,34)" stroke-opacity="1" stroke-width="2" d=" M-9,-1 C-9,-1 9,-1 9,-1 C9,-1 9,9 9,9 C9,9 -9,9 -9,9 C-9,9 -9,-1 -9,-1z M-12,-4.997000217437744 C-12,-4.997000217437744 12,-4.997000217437744 12,-4.997000217437744 C12.552000045776367,-4.997000217437744 13,-4.548999786376953 13,-3.996999979019165 C13,-3.996999979019165 13,12 13,12 C13,12.552000045776367 12.552000045776367,13 12,13 C12,13 -12,13 -12,13 C-12.552000045776367,13 -13,12.552000045776367 -13,12 C-13,12 -13,-3.996999979019165 -13,-3.996999979019165 C-13,-4.548999786376953 -12.552000045776367,-4.997000217437744 -12,-4.997000217437744z"></path></g></g><g id="l_d_7365" transform="matrix(0.9999498724937439,0,0,0.9999498724937439,-23.497997283935547,-17.497997283935547)" opacity="1" style="display: none;"><g id="l_d_7369" opacity="1" transform="matrix(1,0,0,1,40,44)"><path id="l_d_7370" stroke-linecap="butt" stroke-linejoin="miter" fill-opacity="0" stroke-miterlimit="4" stroke="rgb(34,34,34)" stroke-opacity="1" stroke-width="2" d=" M-9,-5 C-9,-5 9,-5 9,-5 C9,-5 9,5 9,5 C9,5 -9,5 -9,5 C-9,5 -9,-5 -9,-5z"></path></g><g id="l_d_7371" opacity="1" transform="matrix(1,0,0,1,40,35)"><path id="l_d_7372" stroke-linecap="butt" stroke-linejoin="miter" fill-opacity="0" stroke-miterlimit="4" stroke="rgb(34,34,34)" stroke-opacity="1" stroke-width="2" d=" M13,0 C13,0 -13,0 -13,0"></path></g></g></g></svg>