<?xml version="1.0" standalone="no"?>
<!DOCTYPE svg PUBLIC "-//W3C//DTD SVG 20010904//EN"
 "http://www.w3.org/TR/2001/REC-SVG-20010904/DTD/svg10.dtd">
<svg version="1.0" xmlns="http://www.w3.org/2000/svg"
 width="350.000000pt" height="323.000000pt" viewBox="0 0 350.000000 323.000000"
 preserveAspectRatio="xMidYMid meet">

<g transform="translate(0.000000,323.000000) scale(0.100000,-0.100000)"
fill="#000000" stroke="none">
<path d="M1751 2460 c-23 -44 -44 -80 -46 -80 -2 0 -22 34 -45 75 -38 69 -44
75 -73 75 l-32 0 0 -105 0 -105 27 0 26 0 -4 78 c-5 72 -4 76 11 57 9 -11 30
-46 47 -78 17 -32 36 -56 42 -54 6 2 29 36 51 75 l40 72 3 -75 c3 -74 3 -75
30 -75 l27 0 0 110 0 110 -31 0 c-28 0 -34 -7 -73 -80z"/>
<path d="M1352 2512 c-16 -2 -31 -19 -50 -58 -14 -30 -29 -54 -32 -54 -4 0
-25 16 -47 35 -42 36 -58 41 -81 27 -8 -6 8 -24 53 -60 54 -44 66 -59 71 -91
5 -34 9 -37 30 -33 23 4 24 8 19 47 -6 36 -1 53 30 114 20 40 35 74 33 75 -2
1 -13 0 -26 -2z"/>
<path d="M2045 2488 c-2 -13 -13 -60 -23 -105 -15 -64 -16 -83 -6 -83 7 0 19
-2 27 -6 11 -4 16 8 21 48 l7 53 20 -27 c24 -33 86 -53 121 -39 34 13 49 35
50 72 2 46 -34 73 -122 93 -91 20 -89 20 -95 -6z m153 -54 c29 -19 28 -40 -2
-59 -22 -14 -28 -15 -60 -1 -36 15 -58 49 -48 75 6 16 76 7 110 -15z"/>
<path d="M2416 2344 c-29 -73 -33 -110 -11 -140 30 -44 121 -68 166 -44 10 6
35 43 55 82 28 56 33 73 22 79 -25 16 -40 4 -60 -46 -31 -82 -72 -104 -122
-64 -33 26 -33 54 -1 120 26 55 26 64 -4 72 -15 4 -23 -7 -45 -59z"/>
<path d="M813 2339 l-22 -8 34 -73 c18 -40 37 -86 40 -101 8 -31 12 -32 39
-12 11 8 42 21 70 29 68 20 90 37 82 63 -7 20 -7 20 -59 -7 -91 -48 -88 -49
-121 33 -35 87 -35 87 -63 76z"/>
<path d="M532 2183 c-71 -35 -99 -115 -60 -173 46 -68 135 -63 202 10 25 28
36 50 36 71 0 37 -24 85 -49 99 -29 15 -91 12 -129 -7z m110 -40 c20 -18 24
-64 8 -94 -12 -21 -60 -49 -85 -49 -25 0 -65 46 -65 75 0 38 50 85 91 85 18 0
41 -7 51 -17z"/>
<path d="M2802 2193 c-7 -2 -17 -13 -22 -24 -14 -25 5 -61 59 -114 44 -42 52
-65 23 -65 -25 0 -93 50 -116 85 -18 27 -20 27 -32 10 -11 -15 -10 -22 6 -46
31 -43 108 -89 150 -89 79 0 81 49 5 125 -30 30 -55 59 -55 64 0 35 67 6 113
-49 18 -21 27 -26 36 -17 18 18 13 33 -26 67 -54 48 -106 67 -141 53z"/>
<path d="M1360 1251 c0 -31 -6 -55 -15 -65 -12 -11 -15 -41 -15 -129 0 -90 3
-117 15 -127 10 -8 15 -30 15 -61 l0 -49 60 0 60 0 0 55 c0 40 4 57 15 61 12
5 15 28 15 124 0 96 -3 119 -15 124 -11 4 -15 21 -15 61 l0 55 -60 0 -60 0 0
-49z"/>
<path d="M1720 1251 c0 -31 -5 -53 -15 -61 -12 -10 -15 -38 -15 -130 0 -92 3
-120 15 -130 10 -8 15 -30 15 -61 l0 -49 60 0 60 0 0 55 c0 40 4 57 15 61 12
5 15 28 15 124 0 96 -3 119 -15 124 -11 4 -15 21 -15 61 l0 55 -60 0 -60 0 0
-49z"/>
<path d="M2080 1251 c0 -31 -5 -53 -15 -61 -12 -10 -15 -38 -15 -130 0 -92 3
-120 15 -130 10 -8 15 -30 15 -61 l0 -49 -67 0 c-167 -1 -222 -7 -266 -33 -74
-43 -86 -93 -87 -334 l0 -173 475 0 475 0 0 205 c0 138 -3 205 -11 205 -5 0
-8 4 -5 8 8 14 -33 74 -46 66 -7 -4 -8 -3 -4 4 4 7 -8 18 -31 28 -30 14 -69
18 -178 18 l-140 1 3 58 c3 38 9 60 18 64 21 8 20 238 -1 247 -11 4 -15 21
-15 61 l0 55 -60 0 -60 0 0 -49z m-49 -610 c12 -16 32 -32 45 -35 28 -7 41
-47 28 -85 l-9 -26 -195 -2 c-186 -2 -194 -1 -162 14 23 12 32 23 32 42 0 33
27 61 61 61 17 0 35 9 46 23 23 30 37 35 90 36 36 1 46 -4 64 -28z"/>
</g>
</svg>
