<svg id="l_d_9564" xmlns="http://www.w3.org/2000/svg" xmlns:xlink="http://www.w3.org/1999/xlink" viewBox="0 0 45 45" width="45" height="45" preserveAspectRatio="xMidYMid meet" style="width: 100%; height: 100%; transform: translate3d(0px, 0px, 0px); content-visibility: visible;"><defs id="l_d_9565"><clipPath id="__lottie_element_4001"><rect id="l_d_9568" width="45" height="45" x="0" y="0"></rect></clipPath></defs><g id="l_d_9566" clip-path="url(#__lottie_element_4001)"><g id="l_d_9587" transform="matrix(1,0,0,1,-23,-17.5)" opacity="1" style="display: block;"><g id="l_d_9591" opacity="1" transform="matrix(1,0,0,1,52,32)"><path id="l_d_9592" stroke-linecap="butt" stroke-linejoin="round" fill-opacity="0" stroke="rgb(34,34,34)" stroke-opacity="1" stroke-width="2" d=" M-0.125,-2 C1.0490000247955322,-2 2,-1.0490000247955322 2,0.125 C2,1.2990000247955322 1.0490000247955322,2.25 -0.125,2.25 C-1.2990000247955322,2.25 -2.25,1.2990000247955322 -2.25,0.125 C-2.25,-1.0490000247955322 -1.2990000247955322,-2 -0.125,-2z"></path></g><g id="l_d_9593" opacity="1" transform="matrix(1,0,0,1,52,48)"><path id="l_d_9594" stroke-linecap="butt" stroke-linejoin="round" fill-opacity="0" stroke="rgb(34,34,34)" stroke-opacity="1" stroke-width="2" d=" M-0.125,-2.25 C1.0490000247955322,-2.25 2,-1.2990000247955322 2,-0.125 C2,1.0490000247955322 1.0490000247955322,2 -0.125,2 C-1.2990000247955322,2 -2.25,1.0490000247955322 -2.25,-0.125 C-2.25,-1.2990000247955322 -1.2990000247955322,-2.25 -0.125,-2.25z"></path></g><g id="l_d_9595" opacity="1" transform="matrix(1,0,0,1,28,48)"><path id="l_d_9596" stroke-linecap="butt" stroke-linejoin="round" fill-opacity="0" stroke="rgb(34,34,34)" stroke-opacity="1" stroke-width="2" d=" M0.31200000643730164,-2.625 C1.5889999866485596,-2.625 2.625,-1.5889999866485596 2.625,-0.31200000643730164 C2.625,0.9649999737739563 1.5889999866485596,2 0.31200000643730164,2 C-0.9649999737739563,2 -2,0.9649999737739563 -2,-0.31200000643730164 C-2,-1.5889999866485596 -0.9649999737739563,-2.625 0.31200000643730164,-2.625z"></path></g><g id="l_d_9597" opacity="1" transform="matrix(1,0,0,1,28,32)"><path id="l_d_9598" stroke-linecap="butt" stroke-linejoin="round" fill-opacity="0" stroke="rgb(34,34,34)" stroke-opacity="1" stroke-width="2" d=" M0.31200000643730164,-2 C1.5889999866485596,-2 2.625,-0.9649999737739563 2.625,0.31200000643730164 C2.625,1.5889999866485596 1.5889999866485596,2.625 0.31200000643730164,2.625 C-0.9649999737739563,2.625 -2,1.5889999866485596 -2,0.31200000643730164 C-2,-0.9649999737739563 -0.9649999737739563,-2 0.31200000643730164,-2z"></path></g><g id="l_d_9599" opacity="1" transform="matrix(1,0,0,1,40,48)"><path id="l_d_9600" stroke-linecap="butt" stroke-linejoin="round" fill-opacity="0" stroke="rgb(34,34,34)" stroke-opacity="1" stroke-width="2" d=" M2,2 C2,2 2,0 2,0 C2,-1.1050000190734863 1.1050000190734863,-2 0,-2 C-1.1050000190734863,-2 -2,-1.1050000190734863 -2,0 C-2,0 -2,2 -2,2"></path></g><g id="l_d_9601" opacity="1" transform="matrix(1,0,0,1,40,32)"><path id="l_d_9602" stroke-linecap="butt" stroke-linejoin="round" fill-opacity="0" stroke="rgb(34,34,34)" stroke-opacity="1" stroke-width="2" d=" M2,-2 C2,-2 2,0 2,0 C2,1.1050000190734863 1.1050000190734863,2 0,2 C-1.1050000190734863,2 -2,1.1050000190734863 -2,0 C-2,0 -2,-2 -2,-2"></path></g></g><g id="l_d_9581" transform="matrix(1,0,0,1,-23,-17.5)" opacity="1" style="display: block;"><g id="l_d_9585" opacity="1" transform="matrix(1,0,0,1,40,40)"><path id="l_d_9586" stroke-linecap="butt" stroke-linejoin="round" fill-opacity="0" stroke="rgb(34,34,34)" stroke-opacity="1" stroke-width="2" d=" M-14,-10 C-14,-10 14,-10 14,-10 C14,-10 14,10 14,10 C14,10 -14,10 -14,10 C-14,10 -14,-10 -14,-10z"></path></g></g><g id="l_d_9575" transform="matrix(1,0,0,1,-23,-17.5)" opacity="1" style="display: block;"><g id="l_d_9579" opacity="1" transform="matrix(1,0,0,1,45.340999603271484,47.02399826049805)"><path id="l_d_9580" stroke-linecap="butt" stroke-linejoin="round" fill-opacity="0" stroke="rgb(34,34,34)" stroke-opacity="1" stroke-width="2" d=" M-2.6589999198913574,-7.97599983215332 C-2.6589999198913574,-7.97599983215332 2.6589999198913574,7.97599983215332 2.6589999198913574,7.97599983215332"></path></g></g><g id="l_d_9569" transform="matrix(1,0,0,1,-23,-17.5)" opacity="1" style="display: block;"><g id="l_d_9573" opacity="1" transform="matrix(1,0,0,1,42,37)"><path id="l_d_9574" fill="rgb(34,34,34)" fill-opacity="1" d=" M0,-1 C0.5519999861717224,-1 1,-0.5519999861717224 1,0 C1,0.5519999861717224 0.5519999861717224,1 0,1 C-0.5519999861717224,1 -1,0.5519999861717224 -1,0 C-1,-0.5519999861717224 -0.5519999861717224,-1 0,-1z"></path></g></g></g></svg>