<svg viewBox="0 0 32 32" xmlns="http://www.w3.org/2000/svg" aria-hidden="true" role="presentation" focusable="false" style="display: block; height: 32px; width: 32px; fill: currentcolor;"><path d="m25.5 25c1.9329966 0 3.5 1.5670034 3.5 3.5s-1.5670034 3.5-3.5 3.5-3.5-1.5670034-3.5-3.5 1.5670034-3.5 3.5-3.5zm0 2c-.8284271 0-1.5.6715729-1.5 1.5s.6715729 1.5 1.5 1.5 1.5-.6715729 1.5-1.5-.6715729-1.5-1.5-1.5zm-12.5-27c6.627417 0 12 5.372583 12 12 0 .6814828-.0568073 1.3496975-.1659449 2.0001671l-2.0342207.0006242c.1312453-.6464311.2001656-1.3155626.2001656-2.0007913 0-5.5228475-4.4771525-10-10-10s-10 4.4771525-10 10c0 2.1157939.65708642 4.078117 1.77832492 5.694035 1.2144491-1.3691846 2.74379697-2.4072974 4.44869696-3.029273-1.35854298-1.0992897-2.22702188-2.7806038-2.22702188-4.664762 0-3.3137085 2.6862915-6 6-6s6 2.6862915 6 6c0 1.88415-.8684713 3.5654576-2.2269422 4.6654512.5780278.2108011 1.1356531.4693315 1.6675103.7720921-.2453515.3986232-.3986478.8578608-.4331383 1.3497363l-.0074298.2127204.0011045.5158163c-1.1818439-.7910587-2.5488111-1.2995027-4.0004751-1.4605813l.0001319-2.1814485c1.7248409-.4443075 2.9992387-2.0102213 2.9992387-3.8737865 0-2.209139-1.790861-4-4-4s-4 1.790861-4 4c0 1.8639271 1.2748927 3.4300871 3.0002435 3.8740452l-.0002189 2.1810787c-2.31947889.2570415-4.42541403 1.4008518-5.90792348 3.1753031 1.79512266 1.7157473 4.22844368 2.769573 6.90789888 2.769573 1.8220549 0 3.5302943-.4873026 5.0015-1.3386899l-.0015.3386899.0064111.1964821c.0348682.5332846.2107607 1.0379918.4981674 1.4687127-1.6478446.8530196-3.519948 1.3348052-5.5045785 1.3348052-6.627417 0-12-5.372583-12-12s5.372583-12 12-12zm17 16c.5128358 0 .9355072.3860402.9932723.8833789l.0067277.1166211v4c0 .3512789-.1838882.67327-.478384.8532121l-.1154775.0605994-4.5 2c-.2216275.0985011-.4701307.1125727-.6994369.0422148l-.1128401-.0422148-4.5-2c-.3210026-.1426678-.5405578-.44148-.5853849-.783675l-.0084766-.1301365v-4c0-.5128358.3860402-.9355072.8833789-.9932723l.1166211-.0067277zm-1 2h-7v2.35l3.5 1.555 3.5-1.555z"></path></svg>